STARTFONT 2.1
FONT -FontForge-Butcherman-Book-R-Normal--18-180-72-72-P-97-ISO10646-1
SIZE 18 72 72
FONTBOUNDINGBOX 27 35 -2 -12
COMMENT "Generated by fontforge, http://fontforge.sourceforge.net"
COMMENT "Copyright (c) 2011, Typomondo, with Reserved Font Name  "Butcherman"."
STARTPROPERTIES 40
FOUNDRY "FontForge"
FAMILY_NAME "Butcherman"
WEIGHT_NAME "Book"
SLANT "R"
SETWIDTH_NAME "Normal"
ADD_STYLE_NAME ""
PIXEL_SIZE 18
POINT_SIZE 180
RESOLUTION_X 72
RESOLUTION_Y 72
SPACING "P"
AVERAGE_WIDTH 97
CHARSET_REGISTRY "ISO10646"
CHARSET_ENCODING "1"
FONTNAME_REGISTRY ""
CHARSET_COLLECTIONS "ISO8859-2 ISO8859-9 ISO8859-4 ISO10646-1"
FONT_NAME "Butcherman-Regular"
FACE_NAME "Butcherman Regular"
COPYRIGHT "Copyright (c) 2011, Typomondo, with Reserved Font Name  "Butcherman"."
FONT_VERSION "001.004"
FONT_ASCENT 14
FONT_DESCENT 4
UNDERLINE_POSITION -2
UNDERLINE_THICKNESS 1
X_HEIGHT 12
CAP_HEIGHT 12
DEFAULT_CHAR 3
RAW_ASCENT 799
RAW_DESCENT 200
NORM_SPACE 3
RELATIVE_WEIGHT 40
RELATIVE_SETWIDTH 50
SUPERSCRIPT_X 0
SUPERSCRIPT_Y 6
SUPERSCRIPT_SIZE 10
SUBSCRIPT_X 0
SUBSCRIPT_Y 1
SUBSCRIPT_SIZE 10
AVG_LOWERCASE_WIDTH 104
AVG_UPPERCASE_WIDTH 99
ENDPROPERTIES
CHARS 331
STARTCHAR NULL.dup1
ENCODING 0
SWIDTH 161 0
DWIDTH 3 0
BBX 1 1 0 0
BITMAP
00
ENDCHAR
STARTCHAR CR
ENCODING 13
SWIDTH 161 0
DWIDTH 3 0
BBX 1 1 0 0
BITMAP
00
ENDCHAR
STARTCHAR space
ENCODING 32
SWIDTH 161 0
DWIDTH 3 0
BBX 1 1 0 0
BITMAP
00
ENDCHAR
STARTCHAR exclam
ENCODING 33
SWIDTH 350 0
DWIDTH 6 0
BBX 6 21 0 1
BITMAP
FC
7C
78
78
78
78
78
38
38
38
30
30
30
30
00
00
FC
78
7C
7C
78
ENDCHAR
STARTCHAR quotedbl
ENCODING 34
SWIDTH 541 0
DWIDTH 10 0
BBX 8 6 1 7
BITMAP
EF
E7
E6
E6
66
66
ENDCHAR
STARTCHAR numbersign
ENCODING 35
SWIDTH 583 0
DWIDTH 11 0
BBX 10 16 0 -2
BITMAP
0CC0
0880
0880
0880
3FC0
3FC0
7FC0
3300
3300
2200
FF80
FF00
6600
4400
4400
4400
ENDCHAR
STARTCHAR dollar
ENCODING 36
SWIDTH 534 0
DWIDTH 10 0
BBX 8 23 1 -5
BITMAP
10
18
10
10
18
3C
7F
FF
FF
FF
EF
E7
FC
7E
1E
EE
FE
7C
38
10
10
10
10
ENDCHAR
STARTCHAR percent
ENCODING 37
SWIDTH 828 0
DWIDTH 15 0
BBX 14 16 0 -2
BITMAP
0040
70C0
F8C0
78C0
5880
5998
59BC
793C
333C
033C
062C
023C
0618
0400
0400
0400
ENDCHAR
STARTCHAR ampersand
ENCODING 38
SWIDTH 522 0
DWIDTH 9 0
BBX 8 9 1 2
BITMAP
38
38
38
FF
FF
FF
38
38
38
ENDCHAR
STARTCHAR quotesingle
ENCODING 39
SWIDTH 300 0
DWIDTH 5 0
BBX 3 6 1 7
BITMAP
E0
E0
E0
E0
60
60
ENDCHAR
STARTCHAR parenleft
ENCODING 40
SWIDTH 372 0
DWIDTH 7 0
BBX 5 18 1 -2
BITMAP
08
18
38
78
78
F8
F8
E0
E0
E0
E0
E0
E0
E0
70
78
38
38
ENDCHAR
STARTCHAR parenright
ENCODING 41
SWIDTH 338 0
DWIDTH 6 0
BBX 5 17 0 -2
BITMAP
60
F0
78
78
78
78
38
18
18
18
18
18
38
30
30
60
E0
ENDCHAR
STARTCHAR asterisk
ENCODING 42
SWIDTH 513 0
DWIDTH 9 0
BBX 9 11 0 4
BITMAP
0200
1200
3600
3600
1C00
FF80
FF80
1C00
1E00
1600
3200
ENDCHAR
STARTCHAR plus
ENCODING 43
SWIDTH 458 0
DWIDTH 8 0
BBX 6 7 1 3
BITMAP
30
30
FC
FC
F4
30
30
ENDCHAR
STARTCHAR comma
ENCODING 44
SWIDTH 361 0
DWIDTH 7 0
BBX 5 9 1 -3
BITMAP
F0
F8
F8
F8
F8
10
30
30
30
ENDCHAR
STARTCHAR hyphen
ENCODING 45
SWIDTH 478 0
DWIDTH 9 0
BBX 7 4 1 5
BITMAP
FE
FC
FC
FC
ENDCHAR
STARTCHAR period
ENCODING 46
SWIDTH 374 0
DWIDTH 7 0
BBX 5 5 1 1
BITMAP
F8
F8
F8
F8
F8
ENDCHAR
STARTCHAR slash
ENCODING 47
SWIDTH 291 0
DWIDTH 5 0
BBX 5 16 0 -2
BITMAP
08
18
18
18
10
30
30
20
60
60
40
40
40
C0
80
80
ENDCHAR
STARTCHAR zero
ENCODING 48
SWIDTH 528 0
DWIDTH 10 0
BBX 8 14 1 -1
BITMAP
7C
FE
FE
FE
FF
EF
EF
EF
EE
EE
EE
7E
7C
38
ENDCHAR
STARTCHAR one
ENCODING 49
SWIDTH 366 0
DWIDTH 7 0
BBX 6 13 0 0
BITMAP
3C
FC
FC
3C
3C
38
38
38
38
18
18
18
18
ENDCHAR
STARTCHAR two
ENCODING 50
SWIDTH 575 0
DWIDTH 10 0
BBX 9 15 1 -2
BITMAP
7C00
FE00
FF00
FF00
FF00
EF00
E700
AE00
0E00
1C00
3C80
FF80
FF80
FB80
0100
ENDCHAR
STARTCHAR three
ENCODING 51
SWIDTH 517 0
DWIDTH 9 0
BBX 7 14 1 -1
BITMAP
7C
FE
FE
FE
FE
FE
EE
0E
1E
0E
36
76
3E
3C
ENDCHAR
STARTCHAR four
ENCODING 52
SWIDTH 466 0
DWIDTH 8 0
BBX 7 17 1 -4
BITMAP
FE
78
F8
70
F0
F0
70
EE
EC
EC
FC
FE
FE
2E
08
08
08
ENDCHAR
STARTCHAR five
ENCODING 53
SWIDTH 583 0
DWIDTH 11 0
BBX 9 14 1 -1
BITMAP
FF80
FF80
FF80
FF80
FF00
FF00
E000
EE00
FE00
0600
3600
7600
3C00
3C00
ENDCHAR
STARTCHAR six
ENCODING 54
SWIDTH 582 0
DWIDTH 10 0
BBX 9 15 1 -2
BITMAP
7E00
FF00
FF80
FF80
FF80
FF00
E700
E700
7C00
7F00
7700
7700
7F00
3F00
1800
ENDCHAR
STARTCHAR seven
ENCODING 55
SWIDTH 624 0
DWIDTH 11 0
BBX 11 15 0 -2
BITMAP
FFE0
7FE0
7FC0
7FC0
7FC0
7F80
03C0
0380
0300
0700
0600
0600
0E00
0C00
1C00
ENDCHAR
STARTCHAR eight
ENCODING 56
SWIDTH 459 0
DWIDTH 8 0
BBX 7 15 1 -2
BITMAP
FC
FE
FE
FC
FC
EC
EC
7C
78
7C
48
48
78
38
20
ENDCHAR
STARTCHAR nine
ENCODING 57
SWIDTH 584 0
DWIDTH 11 0
BBX 9 16 1 -3
BITMAP
3E00
7F00
FF00
FF80
FF80
FF80
F780
FF80
7F00
0700
F700
7E00
7E00
3C00
1000
0800
ENDCHAR
STARTCHAR colon
ENCODING 58
SWIDTH 386 0
DWIDTH 7 0
BBX 5 14 1 1
BITMAP
F8
F8
F8
F8
F8
00
00
00
00
F8
F8
F8
F8
F8
ENDCHAR
STARTCHAR semicolon
ENCODING 59
SWIDTH 375 0
DWIDTH 7 0
BBX 6 18 0 -3
BITMAP
FC
7C
7C
7C
7C
40
00
00
00
7C
7C
7C
7C
7C
0C
08
18
18
ENDCHAR
STARTCHAR less
ENCODING 60
SWIDTH 459 0
DWIDTH 8 0
BBX 8 10 0 1
BITMAP
1F
1E
3C
78
F8
78
38
3C
1E
0F
ENDCHAR
STARTCHAR equal
ENCODING 61
SWIDTH 485 0
DWIDTH 9 0
BBX 7 6 1 5
BITMAP
FE
FC
00
00
FC
FC
ENDCHAR
STARTCHAR greater
ENCODING 62
SWIDTH 432 0
DWIDTH 8 0
BBX 7 10 0 1
BITMAP
F8
78
3C
1E
0E
1E
1C
3C
78
70
ENDCHAR
STARTCHAR question
ENCODING 63
SWIDTH 577 0
DWIDTH 10 0
BBX 8 16 1 -2
BITMAP
3C
FE
FF
FF
FF
EF
AF
0E
0E
1C
18
00
1C
38
1C
18
ENDCHAR
STARTCHAR at
ENCODING 64
SWIDTH 930 0
DWIDTH 17 0
BBX 15 19 1 -4
BITMAP
0FC0
1FE0
3030
67D8
4FEC
CFEC
CFCE
8FCE
8ECE
8CC6
CFC6
CCC6
CCE6
CFFC
66B8
6000
3000
1FC0
0FE0
ENDCHAR
STARTCHAR A
ENCODING 65
SWIDTH 494 0
DWIDTH 9 0
BBX 8 17 0 -4
BITMAP
FF
3E
3E
3E
3E
3E
3E
36
36
36
3E
3E
34
24
2C
24
08
ENDCHAR
STARTCHAR B
ENCODING 66
SWIDTH 517 0
DWIDTH 9 0
BBX 9 14 0 -1
BITMAP
FF00
7F80
3F80
3F80
3F00
3B00
3B00
3F00
3E00
3F00
3B00
3B00
3E00
2A00
ENDCHAR
STARTCHAR C
ENCODING 67
SWIDTH 504 0
DWIDTH 9 0
BBX 9 15 0 -2
BITMAP
3E00
7F00
7F80
FF80
7F80
7F80
7300
7480
7000
7200
7700
3F00
3E00
1400
1400
ENDCHAR
STARTCHAR D
ENCODING 68
SWIDTH 522 0
DWIDTH 9 0
BBX 9 16 0 -3
BITMAP
FF00
7F80
7F80
3F80
3F80
3F80
3B80
3B00
3B00
3B00
3B00
3F00
1600
2400
2400
0400
ENDCHAR
STARTCHAR E
ENCODING 69
SWIDTH 570 0
DWIDTH 10 0
BBX 10 14 0 -1
BITMAP
FFC0
7F80
3F80
3F80
3F00
3B00
3800
3E00
3E00
3A00
3800
3E00
2E00
2A00
ENDCHAR
STARTCHAR F
ENCODING 70
SWIDTH 559 0
DWIDTH 10 0
BBX 10 15 0 -2
BITMAP
FFC0
3F80
3F00
3F00
3F00
3F00
1880
1F00
1F00
1900
1800
1800
1800
2C00
0800
ENDCHAR
STARTCHAR G
ENCODING 71
SWIDTH 499 0
DWIDTH 9 0
BBX 8 15 1 -2
BITMAP
7C
FE
FE
FF
FF
EE
EE
E6
EE
EE
F6
7E
7E
2C
20
ENDCHAR
STARTCHAR H
ENCODING 72
SWIDTH 726 0
DWIDTH 13 0
BBX 13 17 0 -4
BITMAP
FDF8
78F0
38E0
39E0
39E0
39E0
39C0
3FC0
1FC0
19C0
19C0
19C0
1980
1180
0000
0200
0200
ENDCHAR
STARTCHAR I
ENCODING 73
SWIDTH 401 0
DWIDTH 7 0
BBX 7 14 0 -1
BITMAP
FE
7C
3C
3C
3C
3C
38
38
38
38
18
18
18
18
ENDCHAR
STARTCHAR J
ENCODING 74
SWIDTH 455 0
DWIDTH 8 0
BBX 8 14 0 -1
BITMAP
1F
1E
1E
1C
1C
1C
1C
1C
5C
DC
D8
F8
F8
30
ENDCHAR
STARTCHAR K
ENCODING 75
SWIDTH 580 0
DWIDTH 10 0
BBX 10 14 0 -1
BITMAP
FBC0
7B80
3B00
3B00
3E00
1E00
3E00
1E00
1E00
1E00
1B00
1B00
1B00
1B00
ENDCHAR
STARTCHAR L
ENCODING 76
SWIDTH 416 0
DWIDTH 8 0
BBX 8 14 0 -1
BITMAP
FE
78
78
78
78
78
38
38
38
38
39
3F
1F
1F
ENDCHAR
STARTCHAR M
ENCODING 77
SWIDTH 740 0
DWIDTH 13 0
BBX 13 15 0 -1
BITMAP
0540
FDF8
7DF0
3DE0
3FF0
3FE0
3FE0
3FE0
3FE0
1FE0
1BE0
1BE0
1AE0
1AA0
1040
ENDCHAR
STARTCHAR N
ENCODING 78
SWIDTH 610 0
DWIDTH 11 0
BBX 11 16 0 -3
BITMAP
FBE0
7BC0
3D80
3F80
3F80
3F80
3F80
3F80
3F80
1F00
1F00
1B00
1B00
1B00
1A00
1A00
ENDCHAR
STARTCHAR O
ENCODING 79
SWIDTH 504 0
DWIDTH 9 0
BBX 9 15 0 -2
BITMAP
3E00
7F80
7F00
FF80
FF00
7780
7780
7780
7700
7700
3700
3F00
3E00
1600
0400
ENDCHAR
STARTCHAR P
ENCODING 80
SWIDTH 545 0
DWIDTH 10 0
BBX 9 14 0 -1
BITMAP
FF80
3F80
3F80
3F80
3F80
3980
3980
1980
1F80
1F00
1800
1800
1C00
1400
ENDCHAR
STARTCHAR Q
ENCODING 81
SWIDTH 520 0
DWIDTH 9 0
BBX 9 16 0 -3
BITMAP
1E00
7F00
7F80
FF80
FF80
7B80
7380
7380
7380
7B80
3B00
3F00
1F80
0F80
0100
0100
ENDCHAR
STARTCHAR R
ENCODING 82
SWIDTH 599 0
DWIDTH 11 0
BBX 10 14 0 -1
BITMAP
FF80
7FC0
3FC0
3FC0
3FC0
3DC0
39C0
1DC0
1FC0
1F80
1D80
1D80
1D80
0D80
ENDCHAR
STARTCHAR S
ENCODING 83
SWIDTH 504 0
DWIDTH 9 0
BBX 9 15 0 -2
BITMAP
1E00
7F00
7F80
7F80
FF80
F700
7780
7C00
3F00
0F00
7700
7700
3E00
1A00
0400
ENDCHAR
STARTCHAR T
ENCODING 84
SWIDTH 622 0
DWIDTH 11 0
BBX 10 15 1 -2
BITMAP
FFC0
FF80
7F80
7F80
7F80
7F80
9C80
1C00
0C00
1C00
0C00
0C00
0C00
0C00
0C00
ENDCHAR
STARTCHAR U
ENCODING 85
SWIDTH 637 0
DWIDTH 11 0
BBX 11 14 0 -1
BITMAP
FBE0
79C0
7BC0
39C0
39C0
3980
3B80
3B80
3B80
3B80
3B80
1F80
1B00
1600
ENDCHAR
STARTCHAR V
ENCODING 86
SWIDTH 570 0
DWIDTH 10 0
BBX 11 15 0 -2
BITMAP
FBE0
3B80
3380
3300
3F00
3F00
3F00
3F00
3E00
3E00
1E00
1E00
1C00
1C00
0400
ENDCHAR
STARTCHAR W
ENCODING 87
SWIDTH 777 0
DWIDTH 14 0
BBX 14 14 0 0
BITMAP
0340
3B3C
FB78
3B70
1BE0
1BE0
1FE0
0FE0
0FC0
0FC0
0FC0
07C0
0580
0780
ENDCHAR
STARTCHAR X
ENCODING 88
SWIDTH 587 0
DWIDTH 11 0
BBX 11 14 0 -1
BITMAP
FBE0
3B80
1B00
1F00
0E00
0E00
0E00
0E00
0E00
0E00
0E00
1A00
1B00
1900
ENDCHAR
STARTCHAR Y
ENCODING 89
SWIDTH 688 0
DWIDTH 12 0
BBX 13 14 0 -1
BITMAP
F8E0
3DF8
1DE0
0FC0
0780
0780
0780
0380
0380
0380
0380
0380
0300
0200
ENDCHAR
STARTCHAR Z
ENCODING 90
SWIDTH 695 0
DWIDTH 13 0
BBX 11 14 1 -1
BITMAP
FFC0
FFE0
7FC0
7FC0
7F80
7F80
4F00
0E00
1C00
1C00
1800
3F00
3E00
0200
ENDCHAR
STARTCHAR bracketleft
ENCODING 91
SWIDTH 410 0
DWIDTH 7 0
BBX 6 17 1 -1
BITMAP
80
FC
FC
FC
E0
E0
E0
E0
E0
E0
E0
E0
E0
E0
FC
7C
88
ENDCHAR
STARTCHAR backslash
ENCODING 92
SWIDTH 292 0
DWIDTH 5 0
BBX 5 16 0 -2
BITMAP
C0
C0
40
40
60
60
20
30
30
30
10
10
18
08
08
08
ENDCHAR
STARTCHAR bracketright
ENCODING 93
SWIDTH 407 0
DWIDTH 7 0
BBX 6 17 0 -1
BITMAP
14
7C
7C
FC
1C
1C
0C
0C
0C
0C
0C
0C
0C
0C
FC
FC
04
ENDCHAR
STARTCHAR asciicircum
ENCODING 94
SWIDTH 523 0
DWIDTH 9 0
BBX 8 6 1 13
BITMAP
3C
7C
7E
EE
E7
C2
ENDCHAR
STARTCHAR underscore
ENCODING 95
SWIDTH 452 0
DWIDTH 8 0
BBX 6 3 1 -1
BITMAP
FC
FC
10
ENDCHAR
STARTCHAR grave
ENCODING 96
SWIDTH 444 0
DWIDTH 8 0
BBX 6 4 1 14
BITMAP
60
70
F8
1C
ENDCHAR
STARTCHAR a
ENCODING 97
SWIDTH 479 0
DWIDTH 9 0
BBX 9 15 0 -2
BITMAP
FF80
3E00
3E00
3E00
3E00
3E00
3E00
3600
3600
3600
3E00
3E00
3600
3600
2000
ENDCHAR
STARTCHAR b
ENCODING 98
SWIDTH 610 0
DWIDTH 11 0
BBX 11 14 0 -1
BITMAP
FFC0
7FC0
3FC0
3FE0
3FE0
3FC0
1DC0
1DC0
1F80
1F80
1980
1D80
1F80
1780
ENDCHAR
STARTCHAR c
ENCODING 99
SWIDTH 534 0
DWIDTH 10 0
BBX 9 14 0 -1
BITMAP
3F00
7F80
7F80
FF80
7F80
7F80
7380
7B80
7000
7200
3B00
3F00
3F00
0A00
ENDCHAR
STARTCHAR d
ENCODING 100
SWIDTH 573 0
DWIDTH 10 0
BBX 10 15 0 -2
BITMAP
FF00
7F80
7FC0
3FC0
3FC0
3FC0
3DC0
1980
1980
1980
1980
1D80
1F00
1F00
1200
ENDCHAR
STARTCHAR e
ENCODING 101
SWIDTH 632 0
DWIDTH 11 0
BBX 11 14 0 -1
BITMAP
FFE0
7FC0
3FC0
3F80
3F80
3F80
3C00
3F00
1F00
1F00
1C00
1F00
1F00
1700
ENDCHAR
STARTCHAR f
ENCODING 102
SWIDTH 559 0
DWIDTH 10 0
BBX 10 15 0 -2
BITMAP
FFC0
3F80
3F00
3F00
3F00
3F00
1880
1F00
1E00
1900
1800
1800
1800
2800
0800
ENDCHAR
STARTCHAR g
ENCODING 103
SWIDTH 546 0
DWIDTH 10 0
BBX 9 15 1 -2
BITMAP
7E00
FF00
FF00
FF00
FF80
FF00
E700
E700
E800
6F00
6F00
7700
7F00
3E00
1800
ENDCHAR
STARTCHAR h
ENCODING 104
SWIDTH 730 0
DWIDTH 13 0
BBX 13 14 0 -1
BITMAP
FDF8
3CF0
3CE0
39E0
38E0
38E0
39C0
1FE0
1FC0
19C0
1DC0
1DC0
1DC0
1180
ENDCHAR
STARTCHAR i
ENCODING 105
SWIDTH 412 0
DWIDTH 7 0
BBX 7 14 0 -1
BITMAP
FE
7C
3C
3C
3C
38
38
38
38
18
18
18
18
08
ENDCHAR
STARTCHAR j
ENCODING 106
SWIDTH 458 0
DWIDTH 8 0
BBX 9 14 -1 -1
BITMAP
0F80
0F00
0F00
0F00
0F00
0F00
0F00
0600
1600
E600
7600
7E00
3E00
0600
ENDCHAR
STARTCHAR k
ENCODING 107
SWIDTH 636 0
DWIDTH 11 0
BBX 11 14 0 -1
BITMAP
FDE0
3B80
3B80
3F00
1F00
1F00
1E00
1E00
1E00
1F00
1F00
1980
0980
0D00
ENDCHAR
STARTCHAR l
ENCODING 108
SWIDTH 438 0
DWIDTH 8 0
BBX 9 14 0 -1
BITMAP
FE00
3C00
3C00
3800
3800
3800
3800
1800
1800
1800
1C80
1F00
1F00
1300
ENDCHAR
STARTCHAR m
ENCODING 109
SWIDTH 770 0
DWIDTH 14 0
BBX 14 15 0 -1
BITMAP
0100
3CFC
FDF0
3FF0
3FE0
3FE0
3FE0
3FE0
3FE0
3FE0
3AC0
1AC0
1AC0
1BC0
1040
ENDCHAR
STARTCHAR n
ENCODING 110
SWIDTH 664 0
DWIDTH 12 0
BBX 12 15 0 -2
BITMAP
FDF0
7DE0
3DC0
3DC0
3FC0
3FC0
3FC0
3FC0
3F80
3F80
3F80
3B80
1B00
1B00
0100
ENDCHAR
STARTCHAR o
ENCODING 111
SWIDTH 545 0
DWIDTH 10 0
BBX 9 14 0 -1
BITMAP
3F00
7F80
7F80
FF80
7F80
7F80
7380
7380
7380
7380
3700
3F00
3F00
1600
ENDCHAR
STARTCHAR p
ENCODING 112
SWIDTH 557 0
DWIDTH 10 0
BBX 10 14 0 -1
BITMAP
FF80
3F80
3FC0
3F80
3F80
3980
3980
3980
1F80
1F00
1800
1C00
1800
1C00
ENDCHAR
STARTCHAR q
ENCODING 113
SWIDTH 562 0
DWIDTH 10 0
BBX 10 16 0 -3
BITMAP
1F00
7F80
7F80
FFC0
FFC0
7BC0
7BC0
7980
7980
7D80
3B80
1F80
1FC0
0780
0080
0080
ENDCHAR
STARTCHAR r
ENCODING 114
SWIDTH 616 0
DWIDTH 11 0
BBX 11 15 0 -2
BITMAP
FF80
7FE0
3FE0
3FE0
3FC0
3DC0
1DC0
3DC0
1FC0
1F80
1F80
1F80
1F80
1980
0080
ENDCHAR
STARTCHAR s
ENCODING 115
SWIDTH 481 0
DWIDTH 9 0
BBX 8 14 0 -1
BITMAP
3E
7F
7F
7F
FF
FF
77
7C
7E
1E
36
76
3E
3C
ENDCHAR
STARTCHAR t
ENCODING 116
SWIDTH 683 0
DWIDTH 12 0
BBX 12 16 0 -3
BITMAP
FFF0
7FE0
3FC0
3FE0
3FE0
3FC0
2700
0700
0700
0700
0700
0700
0700
0700
0300
0100
ENDCHAR
STARTCHAR u
ENCODING 117
SWIDTH 708 0
DWIDTH 13 0
BBX 13 13 0 0
BITMAP
FDE0
3CF8
3DF0
3CE0
3CE0
3CE0
3DC0
1DC0
1DC0
1DC0
1DC0
1FC0
0D80
ENDCHAR
STARTCHAR v
ENCODING 118
SWIDTH 644 0
DWIDTH 12 0
BBX 12 14 0 -1
BITMAP
F9F0
39C0
3BC0
3980
1B80
1F80
1F80
1F80
1F00
0F00
0F00
0F00
0700
0600
ENDCHAR
STARTCHAR w
ENCODING 119
SWIDTH 704 0
DWIDTH 13 0
BBX 13 13 0 0
BITMAP
F278
7FF0
3F60
3FE0
1FC0
1FC0
1FC0
0FC0
0FC0
0FC0
0F80
0580
0780
ENDCHAR
STARTCHAR x
ENCODING 120
SWIDTH 599 0
DWIDTH 11 0
BBX 11 14 0 -1
BITMAP
FBE0
3B80
1F00
1F00
0F00
0E00
0E00
0E00
0E00
0E00
0E00
0A00
1B00
1500
ENDCHAR
STARTCHAR y
ENCODING 121
SWIDTH 604 0
DWIDTH 11 0
BBX 11 14 0 -1
BITMAP
F9E0
3BC0
1B80
0F00
0F00
0F00
0E00
0E00
0600
0600
0600
0600
0600
0600
ENDCHAR
STARTCHAR z
ENCODING 122
SWIDTH 622 0
DWIDTH 11 0
BBX 10 14 1 -1
BITMAP
FFC0
FF80
7F80
7F00
7F00
7F00
4E00
0C00
1C00
1800
1800
1E00
3E00
2A00
ENDCHAR
STARTCHAR braceleft
ENCODING 123
SWIDTH 372 0
DWIDTH 7 0
BBX 5 18 1 -2
BITMAP
08
18
38
78
78
F8
F8
E0
E0
E0
E0
E0
E0
E0
70
78
38
38
ENDCHAR
STARTCHAR bar
ENCODING 124
SWIDTH 208 0
DWIDTH 4 0
BBX 2 17 1 -2
BITMAP
40
C0
C0
C0
C0
80
80
80
80
C0
C0
C0
80
80
80
80
80
ENDCHAR
STARTCHAR braceright
ENCODING 125
SWIDTH 338 0
DWIDTH 6 0
BBX 5 17 0 -2
BITMAP
60
F0
78
78
78
78
38
18
18
18
18
18
38
30
30
60
E0
ENDCHAR
STARTCHAR asciitilde
ENCODING 126
SWIDTH 535 0
DWIDTH 10 0
BBX 8 4 1 10
BITMAP
46
FF
FF
72
ENDCHAR
STARTCHAR exclamdown
ENCODING 161
SWIDTH 347 0
DWIDTH 6 0
BBX 6 21 0 1
BITMAP
78
7C
7C
78
FC
00
00
30
30
38
30
38
38
38
78
78
78
78
78
7C
FC
ENDCHAR
STARTCHAR cent
ENCODING 162
SWIDTH 552 0
DWIDTH 10 0
BBX 8 26 1 -7
BITMAP
10
08
10
10
10
08
7E
FF
FF
FF
FF
F7
E7
F7
E0
64
76
7E
7E
14
08
08
08
08
08
10
ENDCHAR
STARTCHAR sterling
ENCODING 163
SWIDTH 589 0
DWIDTH 11 0
BBX 9 14 1 -1
BITMAP
7E00
FF00
FF80
FF80
FF80
FF80
E700
E700
F800
7000
7900
7F00
7E00
6E00
ENDCHAR
STARTCHAR yen
ENCODING 165
SWIDTH 692 0
DWIDTH 12 0
BBX 13 15 0 1
BITMAP
0100
F9F8
3DE0
1FC0
0F80
0F80
7FF0
7FA0
0780
7FF0
0700
0700
0300
0300
0280
ENDCHAR
STARTCHAR brokenbar
ENCODING 166
SWIDTH 201 0
DWIDTH 4 0
BBX 2 17 1 -2
BITMAP
80
80
C0
C0
80
80
80
00
00
00
00
C0
80
80
80
C0
80
ENDCHAR
STARTCHAR section
ENCODING 167
SWIDTH 477 0
DWIDTH 9 0
BBX 8 17 0 -3
BITMAP
08
1E
3F
7F
7F
36
36
3C
7E
66
E6
76
7C
1C
2C
7C
3C
ENDCHAR
STARTCHAR dieresis
ENCODING 168
SWIDTH 633 0
DWIDTH 11 0
BBX 9 5 1 14
BITMAP
5380
F780
F780
F780
F480
ENDCHAR
STARTCHAR copyright
ENCODING 169
SWIDTH 783 0
DWIDTH 14 0
BBX 12 15 1 -1
BITMAP
0F00
3AC0
6720
4FA0
DF90
9F90
9F90
9D90
9E90
9C10
8D90
CF30
4F20
22C0
1F80
ENDCHAR
STARTCHAR guillemotleft
ENCODING 171
SWIDTH 759 0
DWIDTH 14 0
BBX 12 10 1 1
BITMAP
3CF0
39E0
7BC0
F3C0
E780
E380
73C0
79C0
38E0
1E70
ENDCHAR
STARTCHAR uni00AD
ENCODING 173
SWIDTH 446 0
DWIDTH 8 0
BBX 6 2 1 5
BITMAP
FC
FC
ENDCHAR
STARTCHAR registered
ENCODING 174
SWIDTH 780 0
DWIDTH 14 0
BBX 13 15 0 -1
BITMAP
0780
1C60
3710
2FD0
6FC8
4FC8
4EC8
C6C8
4788
4788
46C8
22C8
3350
1C60
07C0
ENDCHAR
STARTCHAR macron
ENCODING 175
SWIDTH 446 0
DWIDTH 8 0
BBX 6 2 1 5
BITMAP
FC
FC
ENDCHAR
STARTCHAR acute
ENCODING 180
SWIDTH 439 0
DWIDTH 8 0
BBX 6 4 1 14
BITMAP
18
38
7C
E0
ENDCHAR
STARTCHAR mu
ENCODING 181
SWIDTH 679 0
DWIDTH 12 0
BBX 13 13 0 0
BITMAP
FDE0
79F8
79E0
3DE0
3DE0
3DC0
39C0
39C0
39C0
3DC0
1DC0
1FC0
0B80
ENDCHAR
STARTCHAR paragraph
ENCODING 182
SWIDTH 591 0
DWIDTH 11 0
BBX 10 14 1 -1
BITMAP
FFC0
FF80
F900
F900
F900
FB00
FB00
7B00
0B00
0A00
0A00
0A00
0A00
0A00
ENDCHAR
STARTCHAR periodcentered
ENCODING 183
SWIDTH 388 0
DWIDTH 7 0
BBX 5 6 1 4
BITMAP
30
F8
F8
F8
F8
F8
ENDCHAR
STARTCHAR cedilla
ENCODING 184
SWIDTH 270 0
DWIDTH 5 0
BBX 3 6 1 -6
BITMAP
C0
80
E0
20
20
E0
ENDCHAR
STARTCHAR guillemotright
ENCODING 187
SWIDTH 767 0
DWIDTH 14 0
BBX 13 10 0 1
BITMAP
FBC0
78E0
3CF0
1E70
0E78
1E78
1C78
38F0
78E0
71E0
ENDCHAR
STARTCHAR Agrave
ENCODING 192
SWIDTH 494 0
DWIDTH 9 0
BBX 9 23 -1 -4
BITMAP
2000
7000
F800
1C00
0000
0000
7F80
1F00
1F00
1F00
1F00
1F00
1F00
1B00
1B00
1B00
1F00
1F00
1A00
1200
1600
1200
0400
ENDCHAR
STARTCHAR Aacute
ENCODING 193
SWIDTH 494 0
DWIDTH 9 0
BBX 11 23 0 -4
BITMAP
0080
01C0
03E0
0700
0000
0000
FF00
3E00
3E00
3E00
3E00
3E00
3E00
3600
3600
3600
3E00
3E00
3400
2400
2C00
2400
0800
ENDCHAR
STARTCHAR Acircumflex
ENCODING 194
SWIDTH 494 0
DWIDTH 9 0
BBX 8 25 0 -4
BITMAP
1C
3E
3E
77
63
C3
00
00
FF
3E
3E
3E
3E
3E
3E
36
36
36
3E
3E
34
24
2C
24
08
ENDCHAR
STARTCHAR Atilde
ENCODING 195
SWIDTH 494 0
DWIDTH 9 0
BBX 9 23 0 -4
BITMAP
0200
6F00
FF80
7F00
0000
0000
FF00
3E00
3E00
3E00
3E00
3E00
3E00
3600
3600
3600
3E00
3E00
3400
2400
2C00
2400
0800
ENDCHAR
STARTCHAR Adieresis
ENCODING 196
SWIDTH 494 0
DWIDTH 9 0
BBX 9 23 0 -4
BITMAP
6780
F780
F780
F780
F480
0000
FF00
3E00
3E00
3E00
3E00
3E00
3E00
3600
3600
3600
3E00
3E00
3400
2400
2C00
2400
0800
ENDCHAR
STARTCHAR Aring
ENCODING 197
SWIDTH 494 0
DWIDTH 9 0
BBX 8 23 0 -4
BITMAP
1C
36
32
1C
08
00
FF
3E
3E
3E
3E
3E
3E
36
36
36
3E
3E
34
24
2C
24
08
ENDCHAR
STARTCHAR AE
ENCODING 198
SWIDTH 733 0
DWIDTH 13 0
BBX 13 17 0 -4
BITMAP
FFF8
3FF0
3FF0
3FE0
3FE0
3F60
3F00
37C0
37C0
3740
3F00
3FC0
3DC0
2540
2D40
2540
0800
ENDCHAR
STARTCHAR Ccedilla
ENCODING 199
SWIDTH 504 0
DWIDTH 9 0
BBX 9 21 0 -8
BITMAP
3E00
7F00
7F80
FF80
7F80
7F80
7300
7480
7000
7200
7700
3F00
3E00
1400
1400
0200
0600
0700
0100
0100
0700
ENDCHAR
STARTCHAR Egrave
ENCODING 200
SWIDTH 570 0
DWIDTH 10 0
BBX 10 20 0 -1
BITMAP
6000
7000
F800
1C00
0000
0000
FFC0
7F80
3F80
3F80
3F00
3B00
3800
3E00
3E00
3A00
3800
3E00
2E00
2A00
ENDCHAR
STARTCHAR Eacute
ENCODING 201
SWIDTH 570 0
DWIDTH 10 0
BBX 11 20 0 -1
BITMAP
0040
01C0
03E0
0700
0000
0000
FFC0
7F80
3F80
3F80
3F00
3B00
3800
3E00
3E00
3A00
3800
3E00
2E00
2A00
ENDCHAR
STARTCHAR Ecircumflex
ENCODING 202
SWIDTH 570 0
DWIDTH 10 0
BBX 10 22 0 -1
BITMAP
1E00
1E00
3F00
3F00
3380
6180
0000
0000
FFC0
7F80
3F80
3F80
3F00
3B00
3800
3E00
3E00
3A00
3800
3E00
2E00
2A00
ENDCHAR
STARTCHAR Edieresis
ENCODING 203
SWIDTH 570 0
DWIDTH 10 0
BBX 10 20 0 -1
BITMAP
73C0
73C0
7380
73C0
7240
0000
FFC0
7F80
3F80
3F80
3F00
3B00
3800
3E00
3E00
3A00
3800
3E00
2E00
2A00
ENDCHAR
STARTCHAR Igrave
ENCODING 204
SWIDTH 401 0
DWIDTH 7 0
BBX 9 20 -2 -1
BITMAP
2000
7000
F800
1C00
0000
0000
3F80
1F00
0F00
0F00
0F00
0F00
0E00
0E00
0E00
0E00
0600
0600
0600
0600
ENDCHAR
STARTCHAR Iacute
ENCODING 205
SWIDTH 401 0
DWIDTH 7 0
BBX 10 20 0 -1
BITMAP
0100
0380
07C0
0E00
0000
0000
FE00
7C00
3C00
3C00
3C00
3C00
3800
3800
3800
3800
1800
1800
1800
1800
ENDCHAR
STARTCHAR Icircumflex
ENCODING 206
SWIDTH 401 0
DWIDTH 7 0
BBX 9 22 -1 -1
BITMAP
1C00
3E00
3E00
7700
6300
C180
0000
0000
7F00
3E00
1E00
1E00
1E00
1E00
1C00
1C00
1C00
1C00
0C00
0C00
0C00
0C00
ENDCHAR
STARTCHAR Idieresis
ENCODING 207
SWIDTH 401 0
DWIDTH 7 0
BBX 9 20 -1 -1
BITMAP
6380
F780
F780
F780
F480
0000
7F00
3E00
1E00
1E00
1E00
1E00
1C00
1C00
1C00
1C00
0C00
0C00
0C00
0C00
ENDCHAR
STARTCHAR Eth
ENCODING 208
SWIDTH 530 0
DWIDTH 10 0
BBX 9 16 1 -3
BITMAP
FE00
FF00
7F80
7F80
7F80
3F80
3B80
FF00
3B00
3300
3B00
3F00
3E00
2400
2400
0800
ENDCHAR
STARTCHAR Ntilde
ENCODING 209
SWIDTH 610 0
DWIDTH 11 0
BBX 11 22 0 -3
BITMAP
0200
3780
7F80
3F80
0000
0000
FBE0
7BC0
3D80
3F80
3F80
3F80
3F80
3F80
3F80
1F00
1F00
1B00
1B00
1B00
1A00
1A00
ENDCHAR
STARTCHAR Ograve
ENCODING 210
SWIDTH 504 0
DWIDTH 9 0
BBX 10 21 -1 -2
BITMAP
2000
7000
F800
1C00
0000
0000
1F00
3FC0
3F80
7FC0
7F80
3BC0
3BC0
3BC0
3B80
3B80
1B80
1F80
1F00
0B00
0200
ENDCHAR
STARTCHAR Oacute
ENCODING 211
SWIDTH 504 0
DWIDTH 9 0
BBX 11 21 0 -2
BITMAP
0080
0180
07E0
0700
0000
0000
3E00
7F80
7F00
FF80
FF00
7780
7780
7780
7700
7700
3700
3F00
3E00
1600
0400
ENDCHAR
STARTCHAR Ocircumflex
ENCODING 212
SWIDTH 504 0
DWIDTH 9 0
BBX 9 23 0 -2
BITMAP
1C00
3C00
3E00
7600
6300
C300
0000
0000
3E00
7F80
7F00
FF80
FF00
7780
7780
7780
7700
7700
3700
3F00
3E00
1600
0400
ENDCHAR
STARTCHAR Otilde
ENCODING 213
SWIDTH 504 0
DWIDTH 9 0
BBX 9 21 0 -2
BITMAP
0400
EE00
FF00
7F00
0000
0000
3E00
7F80
7F00
FF80
FF00
7780
7780
7780
7700
7700
3700
3F00
3E00
1600
0400
ENDCHAR
STARTCHAR Odieresis
ENCODING 214
SWIDTH 504 0
DWIDTH 9 0
BBX 9 21 0 -2
BITMAP
6780
F780
F780
F780
F480
0000
3E00
7F80
7F00
FF80
FF00
7780
7780
7780
7700
7700
3700
3F00
3E00
1600
0400
ENDCHAR
STARTCHAR multiply
ENCODING 215
SWIDTH 359 0
DWIDTH 6 0
BBX 6 7 0 3
BITMAP
68
FC
78
38
FC
6C
48
ENDCHAR
STARTCHAR Oslash
ENCODING 216
SWIDTH 658 0
DWIDTH 12 0
BBX 12 15 0 -2
BITMAP
1F00
3F90
7FA0
7FC0
7F80
7F80
7380
3780
3B80
3380
3B80
7F00
9F00
8B00
0400
ENDCHAR
STARTCHAR Ugrave
ENCODING 217
SWIDTH 637 0
DWIDTH 11 0
BBX 11 20 0 -1
BITMAP
2000
3000
7C00
1E00
0000
0200
F9E0
79C0
7BC0
39C0
39C0
3980
3B80
3B80
3B80
3B80
3B80
1F80
1B00
1600
ENDCHAR
STARTCHAR Uacute
ENCODING 218
SWIDTH 637 0
DWIDTH 11 0
BBX 12 20 0 -1
BITMAP
0060
00E0
01F0
0380
0000
0200
F9E0
79C0
7BC0
39C0
39C0
3980
3B80
3B80
3B80
3B80
3B80
1F80
1B00
1600
ENDCHAR
STARTCHAR Ucircumflex
ENCODING 219
SWIDTH 637 0
DWIDTH 11 0
BBX 11 22 0 -1
BITMAP
0E00
0F00
1F00
1B80
3180
20C0
0000
0200
F9E0
79C0
7BC0
39C0
39C0
3980
3B80
3B80
3B80
3B80
3B80
1F80
1B00
1600
ENDCHAR
STARTCHAR Udieresis
ENCODING 220
SWIDTH 637 0
DWIDTH 11 0
BBX 11 20 0 -1
BITMAP
2BC0
39C0
79C0
39C0
7940
0200
F9E0
79C0
7BC0
39C0
39C0
3980
3B80
3B80
3B80
3B80
3B80
1F80
1B00
1600
ENDCHAR
STARTCHAR Yacute
ENCODING 221
SWIDTH 688 0
DWIDTH 12 0
BBX 13 20 0 -1
BITMAP
0020
0060
01F8
01C0
0000
0000
F8E0
3DF8
1DE0
0FC0
0780
0780
0780
0380
0380
0380
0380
0380
0300
0200
ENDCHAR
STARTCHAR Thorn
ENCODING 222
SWIDTH 521 0
DWIDTH 9 0
BBX 9 19 0 -2
BITMAP
0400
F800
F800
7800
7F00
7F80
7F80
7F80
7F80
7B80
7B80
3B00
3F00
3F00
3800
3800
3800
2800
2800
ENDCHAR
STARTCHAR germandbls
ENCODING 223
SWIDTH 546 0
DWIDTH 10 0
BBX 8 14 1 -1
BITMAP
7F
FF
FF
FF
FF
FF
E7
E6
EE
EE
E6
E6
6E
6C
ENDCHAR
STARTCHAR agrave
ENCODING 224
SWIDTH 479 0
DWIDTH 9 0
BBX 10 21 -1 -2
BITMAP
2000
3000
FC00
1C00
0000
0040
7F80
1F00
1F00
1F00
1F00
1F00
1F00
1B00
1B00
1B00
1F00
1F00
1B00
1B00
1000
ENDCHAR
STARTCHAR aacute
ENCODING 225
SWIDTH 479 0
DWIDTH 9 0
BBX 11 21 0 -2
BITMAP
0080
01C0
03E0
0700
0000
0080
FF00
3E00
3E00
3E00
3E00
3E00
3E00
3600
3600
3600
3E00
3E00
3600
3600
2000
ENDCHAR
STARTCHAR acircumflex
ENCODING 226
SWIDTH 479 0
DWIDTH 9 0
BBX 9 23 0 -2
BITMAP
1C00
3E00
3E00
7700
6300
C180
0000
0080
FF00
3E00
3E00
3E00
3E00
3E00
3E00
3600
3600
3600
3E00
3E00
3600
3600
2000
ENDCHAR
STARTCHAR atilde
ENCODING 227
SWIDTH 479 0
DWIDTH 9 0
BBX 9 21 0 -2
BITMAP
0400
6F00
FF80
7F00
0000
0080
FF00
3E00
3E00
3E00
3E00
3E00
3E00
3600
3600
3600
3E00
3E00
3600
3600
2000
ENDCHAR
STARTCHAR adieresis
ENCODING 228
SWIDTH 479 0
DWIDTH 9 0
BBX 9 21 0 -2
BITMAP
5380
F780
F780
F780
F680
0080
FF00
3E00
3E00
3E00
3E00
3E00
3E00
3600
3600
3600
3E00
3E00
3600
3600
2000
ENDCHAR
STARTCHAR aring
ENCODING 229
SWIDTH 479 0
DWIDTH 9 0
BBX 9 21 0 -2
BITMAP
1E00
3600
3200
1C00
0C00
0080
FF00
3E00
3E00
3E00
3E00
3E00
3E00
3600
3600
3600
3E00
3E00
3600
3600
2000
ENDCHAR
STARTCHAR ae
ENCODING 230
SWIDTH 755 0
DWIDTH 14 0
BBX 13 15 0 -2
BITMAP
FFF8
3FF0
3FF0
3FF0
3FF0
3FE0
3F00
37C0
37C0
37C0
3F00
3FE0
37C0
36A0
2000
ENDCHAR
STARTCHAR ccedilla
ENCODING 231
SWIDTH 534 0
DWIDTH 10 0
BBX 9 20 0 -7
BITMAP
3F00
7F80
7F80
FF80
7F80
7F80
7380
7B80
7000
7200
3B00
3F00
3F00
0A00
0600
0400
0700
0300
0300
0700
ENDCHAR
STARTCHAR egrave
ENCODING 232
SWIDTH 632 0
DWIDTH 11 0
BBX 11 20 0 -1
BITMAP
2000
7000
F800
1C00
0000
0000
FFE0
7FC0
3FC0
3F80
3F80
3F80
3C00
3F00
1F00
1F00
1C00
1F00
1F00
1700
ENDCHAR
STARTCHAR eacute
ENCODING 233
SWIDTH 632 0
DWIDTH 11 0
BBX 12 20 0 -1
BITMAP
0040
00E0
01F0
0380
0000
0000
FFE0
7FC0
3FC0
3F80
3F80
3F80
3C00
3F00
1F00
1F00
1C00
1F00
1F00
1700
ENDCHAR
STARTCHAR ecircumflex
ENCODING 234
SWIDTH 632 0
DWIDTH 11 0
BBX 11 22 0 -1
BITMAP
0E00
1F00
1F00
3B80
3180
60C0
0000
0000
FFE0
7FC0
3FC0
3F80
3F80
3F80
3C00
3F00
1F00
1F00
1C00
1F00
1F00
1700
ENDCHAR
STARTCHAR edieresis
ENCODING 235
SWIDTH 632 0
DWIDTH 11 0
BBX 11 20 0 -1
BITMAP
29C0
7BC0
7BC0
7BC0
7B40
0000
FFE0
7FC0
3FC0
3F80
3F80
3F80
3C00
3F00
1F00
1F00
1C00
1F00
1F00
1700
ENDCHAR
STARTCHAR igrave
ENCODING 236
SWIDTH 411 0
DWIDTH 7 0
BBX 9 20 -2 -1
BITMAP
2000
3000
FC00
1C00
0000
0000
3F80
0F00
0F00
0F00
0F00
0E00
0E00
0E00
0E00
0600
0600
0600
0600
0200
ENDCHAR
STARTCHAR iacute
ENCODING 237
SWIDTH 411 0
DWIDTH 7 0
BBX 10 20 0 -1
BITMAP
0100
0380
07C0
0E00
0000
0000
FE00
3C00
3C00
3C00
3C00
3800
3800
3800
3800
1800
1800
1800
1800
0800
ENDCHAR
STARTCHAR icircumflex
ENCODING 238
SWIDTH 411 0
DWIDTH 7 0
BBX 8 22 0 -1
BITMAP
3C
3C
7E
6E
E7
C3
00
00
FE
3C
3C
3C
3C
38
38
38
38
18
18
18
18
08
ENDCHAR
STARTCHAR idieresis
ENCODING 239
SWIDTH 411 0
DWIDTH 7 0
BBX 9 20 -1 -1
BITMAP
5380
F780
F780
F780
F680
0000
7F00
1E00
1E00
1E00
1E00
1C00
1C00
1C00
1C00
0C00
0C00
0C00
0C00
0400
ENDCHAR
STARTCHAR eth
ENCODING 240
SWIDTH 530 0
DWIDTH 10 0
BBX 9 16 1 -3
BITMAP
FE00
FF00
7F80
7F80
7F80
3F80
3B80
FF00
3B00
3300
3B00
3F00
3E00
2400
2400
0800
ENDCHAR
STARTCHAR ntilde
ENCODING 241
SWIDTH 664 0
DWIDTH 12 0
BBX 12 21 0 -2
BITMAP
0100
3380
3FC0
1D80
0000
0000
FDF0
7DE0
3DC0
3DC0
3FC0
3FC0
3FC0
3FC0
3F80
3F80
3F80
3B80
1B00
1B00
0100
ENDCHAR
STARTCHAR ograve
ENCODING 242
SWIDTH 545 0
DWIDTH 10 0
BBX 9 20 0 -1
BITMAP
4000
6000
F800
3C00
0000
0000
3F00
7F80
7F80
FF80
7F80
7F80
7380
7380
7380
7380
3700
3F00
3F00
1600
ENDCHAR
STARTCHAR oacute
ENCODING 243
SWIDTH 545 0
DWIDTH 10 0
BBX 11 20 0 -1
BITMAP
00C0
01C0
03E0
0700
0000
0000
3F00
7F80
7F80
FF80
7F80
7F80
7380
7380
7380
7380
3700
3F00
3F00
1600
ENDCHAR
STARTCHAR ocircumflex
ENCODING 244
SWIDTH 545 0
DWIDTH 10 0
BBX 9 22 0 -1
BITMAP
1C00
3E00
3E00
3700
6300
4180
0000
0000
3F00
7F80
7F80
FF80
7F80
7F80
7380
7380
7380
7380
3700
3F00
3F00
1600
ENDCHAR
STARTCHAR otilde
ENCODING 245
SWIDTH 545 0
DWIDTH 10 0
BBX 9 20 0 -1
BITMAP
0200
6F00
FF80
7F00
0000
0000
3F00
7F80
7F80
FF80
7F80
7F80
7380
7380
7380
7380
3700
3F00
3F00
1600
ENDCHAR
STARTCHAR odieresis
ENCODING 246
SWIDTH 545 0
DWIDTH 10 0
BBX 9 20 0 -1
BITMAP
5780
7380
F380
F380
F280
0000
3F00
7F80
7F80
FF80
7F80
7F80
7380
7380
7380
7380
3700
3F00
3F00
1600
ENDCHAR
STARTCHAR oslash
ENCODING 248
SWIDTH 676 0
DWIDTH 12 0
BBX 12 14 0 -1
BITMAP
3F10
7FA0
7FC0
7F80
7F80
7F80
7780
7B80
7380
3380
3700
7F00
9F00
0E00
ENDCHAR
STARTCHAR ugrave
ENCODING 249
SWIDTH 708 0
DWIDTH 13 0
BBX 13 19 0 0
BITMAP
1000
3800
7C00
0E00
0000
0100
FCE0
3CF8
3DF0
3CE0
3CE0
3CE0
3DC0
1DC0
1DC0
1DC0
1DC0
1FC0
0D80
ENDCHAR
STARTCHAR uacute
ENCODING 250
SWIDTH 708 0
DWIDTH 13 0
BBX 13 19 0 0
BITMAP
0020
0070
00F8
01C0
0000
0100
FCE0
3CF8
3DF0
3CE0
3CE0
3CE0
3DC0
1DC0
1DC0
1DC0
1DC0
1FC0
0D80
ENDCHAR
STARTCHAR ucircumflex
ENCODING 251
SWIDTH 708 0
DWIDTH 13 0
BBX 13 21 0 0
BITMAP
0700
0F80
0F80
1DC0
18C0
30C0
0000
0100
FCE0
3CF8
3DF0
3CE0
3CE0
3CE0
3DC0
1DC0
1DC0
1DC0
1DC0
1FC0
0D80
ENDCHAR
STARTCHAR udieresis
ENCODING 252
SWIDTH 708 0
DWIDTH 13 0
BBX 13 19 0 0
BITMAP
19E0
3DE0
3DE0
3DE0
3D20
0100
FCE0
3CF8
3DF0
3CE0
3CE0
3CE0
3DC0
1DC0
1DC0
1DC0
1DC0
1FC0
0D80
ENDCHAR
STARTCHAR yacute
ENCODING 253
SWIDTH 604 0
DWIDTH 11 0
BBX 12 20 0 -1
BITMAP
0040
00E0
01F0
0380
0000
0000
F9E0
3BC0
1B80
0F00
0F00
0F00
0E00
0E00
0600
0600
0600
0600
0600
0600
ENDCHAR
STARTCHAR thorn
ENCODING 254
SWIDTH 498 0
DWIDTH 9 0
BBX 8 19 0 -2
BITMAP
04
F8
F8
70
7F
7F
7F
7F
7F
73
7B
3B
3F
3E
38
38
38
28
28
ENDCHAR
STARTCHAR ydieresis
ENCODING 255
SWIDTH 604 0
DWIDTH 11 0
BBX 11 20 0 -1
BITMAP
29C0
39C0
39E0
39C0
3940
0000
F9E0
3BC0
1B80
0F00
0F00
0F00
0E00
0E00
0600
0600
0600
0600
0600
0600
ENDCHAR
STARTCHAR Amacron
ENCODING 256
SWIDTH 494 0
DWIDTH 9 0
BBX 8 20 0 -4
BITMAP
7E
3E
00
FF
3E
3E
3E
3E
3E
3E
36
36
36
3E
3E
34
24
2C
24
08
ENDCHAR
STARTCHAR amacron
ENCODING 257
SWIDTH 479 0
DWIDTH 9 0
BBX 9 18 0 -2
BITMAP
3F00
7700
0080
FF00
3E00
3E00
3E00
3E00
3E00
3E00
3600
3600
3600
3E00
3E00
3600
3600
2000
ENDCHAR
STARTCHAR Abreve
ENCODING 258
SWIDTH 494 0
DWIDTH 9 0
BBX 9 24 0 -4
BITMAP
3000
3380
3F00
1F00
0A00
0000
0000
FF00
3E00
3E00
3E00
3E00
3E00
3E00
3600
3600
3600
3E00
3E00
3400
2400
2C00
2400
0800
ENDCHAR
STARTCHAR abreve
ENCODING 259
SWIDTH 479 0
DWIDTH 9 0
BBX 9 22 0 -2
BITMAP
3000
3380
3F00
1F00
0A00
0000
0080
FF00
3E00
3E00
3E00
3E00
3E00
3E00
3600
3600
3600
3E00
3E00
3600
3600
2000
ENDCHAR
STARTCHAR Aogonek
ENCODING 260
SWIDTH 494 0
DWIDTH 9 0
BBX 9 21 0 -8
BITMAP
FF00
3E00
3E00
3E00
3E00
3E00
3E00
3600
3600
3600
3E00
3E00
3400
2400
2C00
2C00
0C00
0C00
0F80
0700
0100
ENDCHAR
STARTCHAR aogonek
ENCODING 261
SWIDTH 479 0
DWIDTH 9 0
BBX 9 19 0 -6
BITMAP
FF80
3E00
3E00
3E00
3E00
3E00
3E00
3600
3600
3600
3E00
3E00
3600
3600
2600
0600
0600
0780
0380
ENDCHAR
STARTCHAR Cacute
ENCODING 262
SWIDTH 504 0
DWIDTH 9 0
BBX 10 21 0 -2
BITMAP
0100
0380
07C0
0E00
0000
0000
3E00
7F00
7F80
FF80
7F80
7F80
7300
7480
7000
7200
7700
3F00
3E00
1400
1400
ENDCHAR
STARTCHAR cacute
ENCODING 263
SWIDTH 534 0
DWIDTH 10 0
BBX 10 20 0 -1
BITMAP
0180
0380
07C0
0E00
0000
0000
3F00
7F80
7F80
FF80
7F80
7F80
7380
7B80
7000
7200
3B00
3F00
3F00
0A00
ENDCHAR
STARTCHAR Ccircumflex
ENCODING 264
SWIDTH 504 0
DWIDTH 9 0
BBX 9 23 0 -2
BITMAP
1E00
1E00
3F00
3700
6380
6180
0000
0000
3E00
7F00
7F80
FF80
7F80
7F80
7300
7480
7000
7200
7700
3F00
3E00
1400
1400
ENDCHAR
STARTCHAR ccircumflex
ENCODING 265
SWIDTH 534 0
DWIDTH 10 0
BBX 9 22 0 -1
BITMAP
0E00
1F00
1F00
3B80
3180
6180
0000
0000
3F00
7F80
7F80
FF80
7F80
7F80
7380
7B80
7000
7200
3B00
3F00
3F00
0A00
ENDCHAR
STARTCHAR Cdotaccent
ENCODING 266
SWIDTH 504 0
DWIDTH 9 0
BBX 9 23 0 -2
BITMAP
0E00
3E00
1E00
1E00
1E00
1E00
0000
0000
3E00
7F00
7F80
FF80
7F80
7F80
7300
7480
7000
7200
7700
3F00
3E00
1400
1400
ENDCHAR
STARTCHAR cdotaccent
ENCODING 267
SWIDTH 534 0
DWIDTH 10 0
BBX 9 22 0 -1
BITMAP
2700
1E00
1E00
1F00
1E00
1E00
0000
0000
3F00
7F80
7F80
FF80
7F80
7F80
7380
7B80
7000
7200
3B00
3F00
3F00
0A00
ENDCHAR
STARTCHAR Ccaron
ENCODING 268
SWIDTH 504 0
DWIDTH 9 0
BBX 9 23 0 -2
BITMAP
6100
6380
7700
3F00
3E00
1E00
0000
0000
3E00
7F00
7F80
FF80
7F80
7F80
7300
7480
7000
7200
7700
3F00
3E00
1400
1400
ENDCHAR
STARTCHAR ccaron
ENCODING 269
SWIDTH 534 0
DWIDTH 10 0
BBX 9 22 0 -1
BITMAP
2180
7180
3B80
3F00
1F00
1E00
0000
0000
3F00
7F80
7F80
FF80
7F80
7F80
7380
7B80
7000
7200
3B00
3F00
3F00
0A00
ENDCHAR
STARTCHAR Dcaron
ENCODING 270
SWIDTH 522 0
DWIDTH 9 0
BBX 10 24 0 -3
BITMAP
7180
31C0
3B80
1F00
1F00
0E00
0000
0000
FF00
7F80
7F80
3F80
3F80
3F80
3B80
3B00
3B00
3B00
3B00
3F00
1600
2400
2400
0400
ENDCHAR
STARTCHAR dcaron
ENCODING 271
SWIDTH 522 0
DWIDTH 9 0
BBX 10 24 0 -3
BITMAP
7180
31C0
3B80
1F00
1F00
0E00
0000
0000
FF00
7F80
7F80
3F80
3F80
3F80
3B80
3B00
3B00
3B00
3B00
3F00
1600
2400
2400
0400
ENDCHAR
STARTCHAR Eth.dup2
ENCODING 272
SWIDTH 530 0
DWIDTH 10 0
BBX 9 16 1 -3
BITMAP
FE00
FF00
7F80
7F80
7F80
3F80
3B80
FF00
3B00
3300
3B00
3F00
3E00
2400
2400
0800
ENDCHAR
STARTCHAR Emacron
ENCODING 274
SWIDTH 570 0
DWIDTH 10 0
BBX 10 17 0 -1
BITMAP
3F00
3F00
0000
FFC0
7F80
3F80
3F80
3F00
3B00
3800
3E00
3E00
3A00
3800
3E00
2E00
2A00
ENDCHAR
STARTCHAR emacron
ENCODING 275
SWIDTH 632 0
DWIDTH 11 0
BBX 11 17 0 -1
BITMAP
3F80
1B80
0000
FFE0
7FC0
3FC0
3F80
3F80
3F80
3C00
3F00
1F00
1F00
1C00
1F00
1F00
1700
ENDCHAR
STARTCHAR Ebreve
ENCODING 276
SWIDTH 570 0
DWIDTH 10 0
BBX 10 21 0 -1
BITMAP
3800
1980
1F80
1F00
0B00
0000
0000
FFC0
7F80
3F80
3F80
3F00
3B00
3800
3E00
3E00
3A00
3800
3E00
2E00
2A00
ENDCHAR
STARTCHAR ebreve
ENCODING 277
SWIDTH 632 0
DWIDTH 11 0
BBX 11 21 0 -1
BITMAP
1C00
0CC0
0FC0
0F80
0580
0000
0000
FFE0
7FC0
3FC0
3F80
3F80
3F80
3C00
3F00
1F00
1F00
1C00
1F00
1F00
1700
ENDCHAR
STARTCHAR Edotaccent
ENCODING 278
SWIDTH 570 0
DWIDTH 10 0
BBX 10 21 0 -1
BITMAP
2E00
1E00
1E00
1E00
1E00
1E00
0000
FFC0
7F80
3F80
3F80
3F00
3B00
3800
3E00
3E00
3A00
3800
3E00
2E00
2A00
ENDCHAR
STARTCHAR edotaccent
ENCODING 279
SWIDTH 632 0
DWIDTH 11 0
BBX 11 21 0 -1
BITMAP
0600
1F00
1F00
1F00
1F00
1F00
0000
FFE0
7FC0
3FC0
3F80
3F80
3F80
3C00
3F00
1F00
1F00
1C00
1F00
1F00
1700
ENDCHAR
STARTCHAR Eogonek
ENCODING 280
SWIDTH 513 0
DWIDTH 9 0
BBX 10 19 0 -6
BITMAP
FFC0
7F80
3F80
3F80
3F00
3B00
3800
3E00
3E00
3A00
3800
3E00
1E00
2600
0400
0C00
0640
0780
0380
ENDCHAR
STARTCHAR eogonek
ENCODING 281
SWIDTH 632 0
DWIDTH 11 0
BBX 11 19 0 -6
BITMAP
FFE0
7FC0
3FC0
3F80
3F80
3F80
3C00
3F00
1F00
1F00
1C00
1F00
1F00
1700
0200
0600
0300
03C0
01C0
ENDCHAR
STARTCHAR Ecaron
ENCODING 282
SWIDTH 570 0
DWIDTH 10 0
BBX 10 22 0 -1
BITMAP
7180
31C0
3B80
1F00
1F00
1E00
0000
0000
FFC0
7F80
3F80
3F80
3F00
3B00
3800
3E00
3E00
3A00
3800
3E00
2E00
2A00
ENDCHAR
STARTCHAR ecaron
ENCODING 283
SWIDTH 632 0
DWIDTH 11 0
BBX 11 22 0 -1
BITMAP
10C0
38C0
1DC0
1F80
0F80
0F00
0000
0000
FFE0
7FC0
3FC0
3F80
3F80
3F80
3C00
3F00
1F00
1F00
1C00
1F00
1F00
1700
ENDCHAR
STARTCHAR Gcircumflex
ENCODING 284
SWIDTH 499 0
DWIDTH 9 0
BBX 9 23 0 -2
BITMAP
1C00
3E00
3E00
7700
6300
C300
0000
0000
3E00
7F00
7F00
7F80
7F80
7700
7700
7300
7700
7700
7B00
3F00
3F00
1600
1000
ENDCHAR
STARTCHAR gcircumflex
ENCODING 285
SWIDTH 546 0
DWIDTH 10 0
BBX 9 23 1 -2
BITMAP
3800
3C00
7C00
6E00
C600
8300
0000
0000
7E00
FF00
FF00
FF00
FF80
FF00
E700
E700
E800
6F00
6F00
7700
7F00
3E00
1800
ENDCHAR
STARTCHAR Gbreve
ENCODING 286
SWIDTH 499 0
DWIDTH 9 0
BBX 8 22 1 -2
BITMAP
E0
66
7E
7C
2C
00
00
7C
FE
FE
FF
FF
EE
EE
E6
EE
EE
F6
7E
7E
2C
20
ENDCHAR
STARTCHAR gbreve
ENCODING 287
SWIDTH 546 0
DWIDTH 10 0
BBX 9 22 1 -2
BITMAP
6000
6700
7E00
3E00
1400
0000
0000
7E00
FF00
FF00
FF00
FF80
FF00
E700
E700
E800
6F00
6F00
7700
7F00
3E00
1800
ENDCHAR
STARTCHAR Gdotaccent
ENCODING 288
SWIDTH 499 0
DWIDTH 9 0
BBX 8 22 1 -2
BITMAP
18
7C
7C
7C
7C
7C
00
7C
FE
FE
FF
FF
EE
EE
E6
EE
EE
F6
7E
7E
2C
20
ENDCHAR
STARTCHAR gdotaccent
ENCODING 289
SWIDTH 546 0
DWIDTH 10 0
BBX 9 22 1 -2
BITMAP
1C00
7C00
3C00
3C00
3C00
3C00
0000
7E00
FF00
FF00
FF00
FF80
FF00
E700
E700
E800
6F00
6F00
7700
7F00
3E00
1800
ENDCHAR
STARTCHAR Gcommaaccent
ENCODING 290
SWIDTH 499 0
DWIDTH 9 0
BBX 8 24 1 -11
BITMAP
7C
FE
FE
FF
FF
EE
EE
E6
EE
EE
F6
7E
7E
2C
20
00
3C
3C
3C
3C
0C
0C
0C
0C
ENDCHAR
STARTCHAR Hcircumflex
ENCODING 292
SWIDTH 726 0
DWIDTH 13 0
BBX 13 25 0 -4
BITMAP
0700
0F00
0F80
1D80
18C0
30C0
0000
0000
FDF8
78F0
38E0
39E0
39E0
39E0
39C0
3FC0
1FC0
19C0
19C0
19C0
1980
1180
0000
0200
0200
ENDCHAR
STARTCHAR hcircumflex
ENCODING 293
SWIDTH 730 0
DWIDTH 13 0
BBX 13 22 0 -1
BITMAP
0700
0F80
0F80
1DC0
18C0
30C0
0000
0000
FDF8
3CF0
3CE0
39E0
38E0
38E0
39C0
1FE0
1FC0
19C0
1DC0
1DC0
1DC0
1180
ENDCHAR
STARTCHAR hbar
ENCODING 295
SWIDTH 704 0
DWIDTH 13 0
BBX 12 14 0 -1
BITMAP
FDF0
39E0
3FE0
3FE0
3FE0
39C0
39C0
1FC0
1FC0
19C0
1DC0
1DC0
1DC0
1180
ENDCHAR
STARTCHAR Itilde
ENCODING 296
SWIDTH 401 0
DWIDTH 7 0
BBX 8 20 -1 -1
BITMAP
04
6F
FF
7B
00
00
7F
3E
1E
1E
1E
1E
1C
1C
1C
1C
0C
0C
0C
0C
ENDCHAR
STARTCHAR itilde
ENCODING 297
SWIDTH 411 0
DWIDTH 7 0
BBX 9 20 -1 -1
BITMAP
0400
6F00
FF80
7F00
0000
0000
7F00
1E00
1E00
1E00
1E00
1C00
1C00
1C00
1C00
0C00
0C00
0C00
0C00
0400
ENDCHAR
STARTCHAR Imacron
ENCODING 298
SWIDTH 401 0
DWIDTH 7 0
BBX 7 17 0 -1
BITMAP
FE
6C
00
FE
7C
3C
3C
3C
3C
38
38
38
38
18
18
18
18
ENDCHAR
STARTCHAR imacron
ENCODING 299
SWIDTH 411 0
DWIDTH 7 0
BBX 7 17 0 -1
BITMAP
7E
EE
00
FE
3C
3C
3C
3C
38
38
38
38
18
18
18
18
08
ENDCHAR
STARTCHAR Ibreve
ENCODING 300
SWIDTH 401 0
DWIDTH 7 0
BBX 7 21 0 -1
BITMAP
E0
66
7E
7E
1C
00
00
FE
7C
3C
3C
3C
3C
38
38
38
38
18
18
18
18
ENDCHAR
STARTCHAR ibreve
ENCODING 301
SWIDTH 411 0
DWIDTH 7 0
BBX 7 21 0 -1
BITMAP
E0
66
7E
7C
2C
00
00
FE
3C
3C
3C
3C
38
38
38
38
18
18
18
18
08
ENDCHAR
STARTCHAR Iogonek
ENCODING 302
SWIDTH 401 0
DWIDTH 7 0
BBX 7 20 0 -7
BITMAP
FE
7C
3C
3C
3C
3C
38
38
38
38
18
18
18
10
30
30
30
38
3E
1E
ENDCHAR
STARTCHAR iogonek
ENCODING 303
SWIDTH 412 0
DWIDTH 7 0
BBX 7 20 0 -7
BITMAP
FE
7C
3C
3C
3C
38
38
38
38
18
18
18
18
18
30
30
30
3E
1E
0E
ENDCHAR
STARTCHAR Idotaccent
ENCODING 304
SWIDTH 401 0
DWIDTH 7 0
BBX 7 21 0 -1
BITMAP
18
7C
7C
7C
7C
7C
00
FE
7C
3C
3C
3C
3C
38
38
38
38
18
18
18
18
ENDCHAR
STARTCHAR dotlessi
ENCODING 305
SWIDTH 411 0
DWIDTH 7 0
BBX 7 14 0 -1
BITMAP
FE
3C
3C
3C
3C
38
38
38
38
18
18
18
18
08
ENDCHAR
STARTCHAR IJ
ENCODING 306
SWIDTH 908 0
DWIDTH 16 0
BBX 16 14 0 -1
BITMAP
FE1F
7C1E
3C0E
3C0E
3C1C
3C1C
3C1C
3C0C
3C5C
38DC
1CDC
18F8
1878
1C30
ENDCHAR
STARTCHAR ij
ENCODING 307
SWIDTH 901 0
DWIDTH 16 0
BBX 16 14 0 -1
BITMAP
FE3F
7C1E
3C1E
3C1E
3C1E
3C1E
3C1C
3C0C
1C5C
18DC
18DC
18FC
187C
080C
ENDCHAR
STARTCHAR Jcircumflex
ENCODING 308
SWIDTH 455 0
DWIDTH 8 0
BBX 9 22 0 -1
BITMAP
1E00
1E00
3F00
3700
7380
6180
0000
0000
1F00
1E00
1E00
1C00
1C00
1C00
1C00
1C00
5C00
DC00
D800
F800
F800
3000
ENDCHAR
STARTCHAR jcircumflex
ENCODING 309
SWIDTH 458 0
DWIDTH 8 0
BBX 10 22 -1 -1
BITMAP
0F00
0F00
1F80
1B80
39C0
30C0
0000
0000
1F80
0F00
0F00
0F00
0F00
0F00
0F00
0600
1600
E600
7600
7E00
3E00
0600
ENDCHAR
STARTCHAR Kcommaaccent
ENCODING 310
SWIDTH 580 0
DWIDTH 10 0
BBX 10 23 0 -10
BITMAP
FBC0
7B80
3B00
3B00
3E00
1E00
3E00
1E00
1E00
1E00
1B00
1B00
1B00
1B00
0000
0F00
0F00
0F00
0F00
0300
0300
0300
0200
ENDCHAR
STARTCHAR kcommaaccent
ENCODING 311
SWIDTH 636 0
DWIDTH 11 0
BBX 11 23 0 -10
BITMAP
FDE0
3B80
3B80
3F00
1F00
1F00
1E00
1E00
1E00
1F00
1F00
1980
0980
0D00
0000
0F00
0F00
0F80
0F00
0100
0300
0300
0300
ENDCHAR
STARTCHAR kgreenlandic
ENCODING 312
SWIDTH 636 0
DWIDTH 11 0
BBX 11 14 0 -1
BITMAP
FDE0
3B80
3B80
3F00
1F00
1F00
1E00
1E00
1E00
1F00
1F00
1980
0980
0D00
ENDCHAR
STARTCHAR Lacute
ENCODING 313
SWIDTH 416 0
DWIDTH 8 0
BBX 10 20 0 -1
BITMAP
0100
0380
07C0
0E00
0000
0200
FC00
7800
7800
7800
7800
7800
3800
3800
3800
3800
3900
3F00
1F00
1F00
ENDCHAR
STARTCHAR lacute
ENCODING 314
SWIDTH 438 0
DWIDTH 8 0
BBX 10 20 0 -1
BITMAP
0180
0380
07C0
0E00
0000
0200
FC00
3C00
3C00
3800
3800
3800
3800
1800
1800
1800
1C80
1F00
1F00
1300
ENDCHAR
STARTCHAR Lcommaaccent
ENCODING 315
SWIDTH 416 0
DWIDTH 8 0
BBX 8 24 0 -11
BITMAP
FE
78
78
78
78
78
38
38
38
38
39
3F
1F
1F
00
00
3C
3C
3C
3C
04
0C
0C
0C
ENDCHAR
STARTCHAR lcommaaccent
ENCODING 316
SWIDTH 438 0
DWIDTH 8 0
BBX 9 24 0 -11
BITMAP
FE00
3C00
3C00
3800
3800
3800
3800
1800
1800
1800
1C80
1F00
1F00
1300
0000
0000
3E00
3E00
3E00
3E00
0600
0400
0C00
0C00
ENDCHAR
STARTCHAR Lcaron
ENCODING 317
SWIDTH 714 0
DWIDTH 13 0
BBX 12 14 0 -1
BITMAP
FEF0
78F0
78F0
39F0
39F0
3830
3830
3830
3830
3800
3900
3F00
1F00
1F00
ENDCHAR
STARTCHAR lcaron
ENCODING 318
SWIDTH 782 0
DWIDTH 14 0
BBX 13 14 0 -1
BITMAP
FE78
3C78
3C78
3878
3878
3808
3818
1818
1818
1800
1C80
1F00
1F00
1300
ENDCHAR
STARTCHAR Ldotaccent
ENCODING 319
SWIDTH 567 0
DWIDTH 10 0
BBX 11 14 0 -1
BITMAP
FE00
7800
78E0
7BE0
7BE0
79E0
39E0
39E0
3800
3800
3900
3F00
1F00
1F00
ENDCHAR
STARTCHAR ldot
ENCODING 320
SWIDTH 660 0
DWIDTH 12 0
BBX 12 14 0 -1
BITMAP
FE00
3C00
3C00
3970
38F0
38F0
38F0
18F0
18F0
1800
1C80
1F00
1F00
1300
ENDCHAR
STARTCHAR Lslash
ENCODING 321
SWIDTH 428 0
DWIDTH 8 0
BBX 8 14 0 -1
BITMAP
FC
78
38
39
3F
3F
FF
7C
78
38
39
1F
1F
1F
ENDCHAR
STARTCHAR lslash
ENCODING 322
SWIDTH 457 0
DWIDTH 8 0
BBX 9 14 0 -1
BITMAP
FF00
3C00
3C00
3D00
3F80
3F80
FF00
7C00
7800
1C00
1C80
1F00
1F00
1100
ENDCHAR
STARTCHAR Nacute
ENCODING 323
SWIDTH 610 0
DWIDTH 11 0
BBX 12 22 0 -3
BITMAP
0040
00E0
01F0
0380
0000
0000
FBE0
7BC0
3D80
3F80
3F80
3F80
3F80
3F80
3F80
1F00
1F00
1B00
1B00
1B00
1A00
1A00
ENDCHAR
STARTCHAR nacute
ENCODING 324
SWIDTH 664 0
DWIDTH 12 0
BBX 12 21 0 -2
BITMAP
0020
00E0
01F0
0380
0000
0000
FDF0
7DE0
3DC0
3DC0
3FC0
3FC0
3FC0
3FC0
3F80
3F80
3F80
3B80
1B00
1B00
0100
ENDCHAR
STARTCHAR Ncommaaccent
ENCODING 325
SWIDTH 610 0
DWIDTH 11 0
BBX 11 25 0 -12
BITMAP
FBE0
7BC0
3D80
3F80
3F80
3F80
3F80
3F80
3F80
1F00
1F00
1B00
1B00
1B00
1A00
1A00
0000
0F00
0F00
0F80
0F00
0100
0300
0300
0300
ENDCHAR
STARTCHAR ncommaaccent
ENCODING 326
SWIDTH 664 0
DWIDTH 12 0
BBX 12 24 0 -11
BITMAP
FDF0
7DE0
3DC0
3DC0
3FC0
3FC0
3FC0
3FC0
3F80
3F80
3F80
3B80
1B00
1B00
0100
0000
0780
0780
0780
0780
0180
0180
0180
0100
ENDCHAR
STARTCHAR Ncaron
ENCODING 327
SWIDTH 610 0
DWIDTH 11 0
BBX 11 24 0 -3
BITMAP
3080
31C0
3B80
1F80
1F00
0F00
0000
0000
FBE0
7BC0
3D80
3F80
3F80
3F80
3F80
3F80
3F80
1F00
1F00
1B00
1B00
1B00
1A00
1A00
ENDCHAR
STARTCHAR ncaron
ENCODING 328
SWIDTH 664 0
DWIDTH 12 0
BBX 12 23 0 -2
BITMAP
38C0
18E0
1DC0
0F80
0F80
0F00
0000
0000
FDF0
7DE0
3DC0
3DC0
3FC0
3FC0
3FC0
3FC0
3F80
3F80
3F80
3B80
1B00
1B00
0100
ENDCHAR
STARTCHAR Omacron
ENCODING 332
SWIDTH 504 0
DWIDTH 9 0
BBX 9 18 0 -2
BITMAP
7E00
7E00
0000
3E00
7F80
7F00
FF80
FF00
7780
7780
7780
7700
7700
3700
3F00
3E00
1600
0400
ENDCHAR
STARTCHAR omacron
ENCODING 333
SWIDTH 545 0
DWIDTH 10 0
BBX 9 17 0 -1
BITMAP
3F00
3F00
0000
3F00
7F80
7F80
FF80
7F80
7F80
7380
7380
7380
7380
3700
3F00
3F00
1600
ENDCHAR
STARTCHAR Obreve
ENCODING 334
SWIDTH 504 0
DWIDTH 9 0
BBX 9 22 0 -2
BITMAP
7000
3300
3F00
3E00
1600
0000
0000
3E00
7F80
7F00
FF80
FF00
7780
7780
7780
7700
7700
3700
3F00
3E00
1600
0400
ENDCHAR
STARTCHAR obreve
ENCODING 335
SWIDTH 545 0
DWIDTH 10 0
BBX 9 21 0 -1
BITMAP
3000
3380
3F00
1F00
0E00
0000
0000
3F00
7F80
7F80
FF80
7F80
7F80
7380
7380
7380
7380
3700
3F00
3F00
1600
ENDCHAR
STARTCHAR Ohungarumlaut
ENCODING 336
SWIDTH 504 0
DWIDTH 9 0
BBX 9 23 0 -2
BITMAP
2200
3B80
3B80
7700
6600
C400
0000
0000
3E00
7F80
7F00
FF80
FF00
7780
7780
7780
7700
7700
3700
3F00
3E00
1600
0400
ENDCHAR
STARTCHAR ohungarumlaut
ENCODING 337
SWIDTH 545 0
DWIDTH 10 0
BBX 10 22 0 -1
BITMAP
1100
19C0
3B80
3300
6600
4400
0000
0000
3F00
7F80
7F80
FF80
7F80
7F80
7380
7380
7380
7380
3700
3F00
3F00
1600
ENDCHAR
STARTCHAR OE
ENCODING 338
SWIDTH 789 0
DWIDTH 14 0
BBX 14 16 0 -3
BITMAP
3FFC
7FF8
7FF8
FFF0
FFF0
77B0
7780
77E0
77E0
77A0
3780
3FE0
3EE0
16A0
16A0
00A0
ENDCHAR
STARTCHAR oe
ENCODING 339
SWIDTH 778 0
DWIDTH 14 0
BBX 13 14 0 -1
BITMAP
3FF8
7FF8
7FF0
FFF0
7FF0
77F0
7790
7380
73E0
37E0
3700
3FE0
3FE0
16A0
ENDCHAR
STARTCHAR Racute
ENCODING 340
SWIDTH 599 0
DWIDTH 11 0
BBX 12 20 0 -1
BITMAP
0040
00C0
03F0
0380
0000
0000
FF80
7FC0
3FC0
3FC0
3FC0
3DC0
39C0
1DC0
1FC0
1F80
1D80
1D80
1D80
0D80
ENDCHAR
STARTCHAR racute
ENCODING 341
SWIDTH 616 0
DWIDTH 11 0
BBX 12 21 0 -2
BITMAP
0040
00E0
01F0
0380
0000
0000
FF80
7FE0
3FE0
3FE0
3FC0
3DC0
1DC0
3DC0
1FC0
1F80
1F80
1F80
1F80
1980
0080
ENDCHAR
STARTCHAR Rcommaaccent
ENCODING 342
SWIDTH 599 0
DWIDTH 11 0
BBX 10 24 0 -11
BITMAP
FF80
7FC0
3FC0
3FC0
3FC0
3DC0
39C0
1DC0
1FC0
1F80
1D80
1D80
1D80
0D80
0000
0000
0F00
0F00
0F00
0F00
0300
0300
0300
0300
ENDCHAR
STARTCHAR rcommaaccent
ENCODING 343
SWIDTH 616 0
DWIDTH 11 0
BBX 11 24 0 -11
BITMAP
FF80
7FE0
3FE0
3FE0
3FC0
3DC0
1DC0
3DC0
1FC0
1F80
1F80
1F80
1F80
1980
0080
0000
0F00
0F00
0F00
0F00
0300
0300
0300
0300
ENDCHAR
STARTCHAR Rcaron
ENCODING 344
SWIDTH 599 0
DWIDTH 11 0
BBX 10 22 0 -1
BITMAP
1080
39C0
19C0
1F80
0F00
0F00
0000
0000
FF80
7FC0
3FC0
3FC0
3FC0
3DC0
39C0
1DC0
1FC0
1F80
1D80
1D80
1D80
0D80
ENDCHAR
STARTCHAR rcaron
ENCODING 345
SWIDTH 616 0
DWIDTH 11 0
BBX 11 23 0 -2
BITMAP
3080
39C0
1980
1F80
0F00
0F00
0000
0000
FF80
7FE0
3FE0
3FE0
3FC0
3DC0
1DC0
3DC0
1FC0
1F80
1F80
1F80
1F80
1980
0080
ENDCHAR
STARTCHAR Sacute
ENCODING 346
SWIDTH 504 0
DWIDTH 9 0
BBX 11 21 0 -2
BITMAP
0080
0180
07E0
0700
0000
0000
1E00
7F00
7F80
7F80
FF80
F700
7780
7C00
3F00
0F00
7700
7700
3E00
1A00
0400
ENDCHAR
STARTCHAR sacute
ENCODING 347
SWIDTH 481 0
DWIDTH 9 0
BBX 10 20 0 -1
BITMAP
0080
0180
07C0
0E00
0000
0000
3E00
7F00
7F00
7F00
FF00
FF00
7700
7C00
7E00
1E00
3600
7600
3E00
3C00
ENDCHAR
STARTCHAR Scircumflex
ENCODING 348
SWIDTH 504 0
DWIDTH 9 0
BBX 9 23 0 -2
BITMAP
1E00
1E00
3F00
3700
3380
6180
0000
0000
1E00
7F00
7F80
7F80
FF80
F700
7780
7C00
3F00
0F00
7700
7700
3E00
1A00
0400
ENDCHAR
STARTCHAR scircumflex
ENCODING 349
SWIDTH 481 0
DWIDTH 9 0
BBX 9 22 0 -1
BITMAP
1C00
1E00
3E00
3700
6300
4180
0000
0000
3E00
7F00
7F00
7F00
FF00
FF00
7700
7C00
7E00
1E00
3600
7600
3E00
3C00
ENDCHAR
STARTCHAR Scedilla
ENCODING 350
SWIDTH 504 0
DWIDTH 9 0
BBX 9 19 0 -6
BITMAP
1E00
7F00
7F80
7F80
FF80
F700
7780
7C00
3F00
0F00
7700
7700
3E00
1E00
0800
0E00
0200
0200
0E00
ENDCHAR
STARTCHAR scedilla
ENCODING 351
SWIDTH 481 0
DWIDTH 9 0
BBX 8 19 0 -6
BITMAP
3E
7F
7F
7F
FF
FF
77
7C
7E
1E
36
76
3E
3C
18
1C
04
04
1C
ENDCHAR
STARTCHAR Scaron
ENCODING 352
SWIDTH 503 0
DWIDTH 9 0
BBX 9 25 0 -2
BITMAP
2100
6380
7300
3700
3E00
1E00
1400
0000
0000
0000
1E00
7F00
7F80
7F80
FF80
F700
7780
7C00
3F00
0F00
7700
7700
3E00
1A00
0400
ENDCHAR
STARTCHAR scaron
ENCODING 353
SWIDTH 479 0
DWIDTH 9 0
BBX 9 24 0 -1
BITMAP
4200
E380
6700
7700
3E00
3E00
1C00
0000
0000
0000
3E00
7F00
7F00
7F00
FF00
F700
7700
7C00
7E00
1E00
3600
7600
3E00
3C00
ENDCHAR
STARTCHAR Tcommaaccent
ENCODING 354
SWIDTH 622 0
DWIDTH 11 0
BBX 10 20 1 -7
BITMAP
FFC0
FF80
7F80
7F80
7F80
7F80
9C80
1C00
0C00
1C00
0C00
0C00
0C00
0C00
0C00
0800
0E00
0600
0600
0E00
ENDCHAR
STARTCHAR tcommaaccent
ENCODING 355
SWIDTH 683 0
DWIDTH 12 0
BBX 12 20 0 -7
BITMAP
FFF0
7FE0
3FC0
3FE0
3FE0
3FC0
2700
0700
0700
0700
0700
0700
0700
0700
0300
0300
0780
0180
0180
0780
ENDCHAR
STARTCHAR Tcaron
ENCODING 356
SWIDTH 622 0
DWIDTH 11 0
BBX 10 23 1 -2
BITMAP
6100
6380
7700
3F00
3E00
1E00
0000
0000
FFC0
FF80
7F80
7F80
7F80
7F80
9C80
1C00
0C00
1C00
0C00
0C00
0C00
0C00
0C00
ENDCHAR
STARTCHAR tcaron
ENCODING 357
SWIDTH 622 0
DWIDTH 11 0
BBX 10 23 1 -2
BITMAP
2100
7380
3300
3F00
1E00
1E00
0000
0000
FFC0
FF80
7F80
7F80
7F80
7F80
9C80
1C00
0C00
1C00
0C00
0C00
0C00
0C00
0C00
ENDCHAR
STARTCHAR Utilde
ENCODING 360
SWIDTH 637 0
DWIDTH 11 0
BBX 11 20 0 -1
BITMAP
0100
3780
7FC0
3F80
0000
0200
F9E0
79C0
7BC0
39C0
39C0
3980
3B80
3B80
3B80
3B80
3B80
1F80
1B00
1600
ENDCHAR
STARTCHAR utilde
ENCODING 361
SWIDTH 708 0
DWIDTH 13 0
BBX 13 19 0 0
BITMAP
0100
3B80
3FC0
1EC0
0000
0100
FCE0
3CF8
3DF0
3CE0
3CE0
3CE0
3DC0
1DC0
1DC0
1DC0
1DC0
1FC0
0D80
ENDCHAR
STARTCHAR Umacron
ENCODING 362
SWIDTH 637 0
DWIDTH 11 0
BBX 11 17 0 -1
BITMAP
1F80
1F80
0200
F9E0
79C0
7BC0
39C0
39C0
3980
3B80
3B80
3B80
3B80
3B80
1F80
1B00
1600
ENDCHAR
STARTCHAR umacron
ENCODING 363
SWIDTH 708 0
DWIDTH 13 0
BBX 13 16 0 0
BITMAP
1F80
0F80
0100
FCE0
3CF8
3DF0
3CE0
3CE0
3CE0
3DC0
1DC0
1DC0
1DC0
1DC0
1FC0
0D80
ENDCHAR
STARTCHAR Ubreve
ENCODING 364
SWIDTH 637 0
DWIDTH 11 0
BBX 11 21 0 -1
BITMAP
1800
19C0
1FC0
0F80
0500
0000
0200
F9E0
79C0
7BC0
39C0
39C0
3980
3B80
3B80
3B80
3B80
3B80
1F80
1B00
1600
ENDCHAR
STARTCHAR ubreve
ENCODING 365
SWIDTH 708 0
DWIDTH 13 0
BBX 13 20 0 0
BITMAP
0C20
0CC0
0FC0
0FC0
0380
0000
0100
FCE0
3CF8
3DF0
3CE0
3CE0
3CE0
3DC0
1DC0
1DC0
1DC0
1DC0
1FC0
0D80
ENDCHAR
STARTCHAR Uring
ENCODING 366
SWIDTH 637 0
DWIDTH 11 0
BBX 11 20 0 -1
BITMAP
0F00
0900
0900
0F00
0600
0200
F9E0
79C0
7BC0
39C0
39C0
3980
3B80
3B80
3B80
3B80
3B80
1F80
1B00
1600
ENDCHAR
STARTCHAR uring
ENCODING 367
SWIDTH 708 0
DWIDTH 13 0
BBX 13 19 0 0
BITMAP
0780
0C80
0480
0780
0300
0100
FCE0
3CF8
3DF0
3CE0
3CE0
3CE0
3DC0
1DC0
1DC0
1DC0
1DC0
1FC0
0D80
ENDCHAR
STARTCHAR Uhungarumlaut
ENCODING 368
SWIDTH 637 0
DWIDTH 11 0
BBX 11 22 0 -1
BITMAP
0880
0CE0
1DC0
1980
3300
2200
0000
0200
F9E0
79C0
7BC0
39C0
39C0
3980
3B80
3B80
3B80
3B80
3B80
1F80
1B00
1600
ENDCHAR
STARTCHAR uhungarumlaut
ENCODING 369
SWIDTH 708 0
DWIDTH 13 0
BBX 13 21 0 0
BITMAP
0880
0EE0
0EE0
1DC0
1980
1100
0000
0100
FCE0
3CF8
3DF0
3CE0
3CE0
3CE0
3DC0
1DC0
1DC0
1DC0
1DC0
1FC0
0D80
ENDCHAR
STARTCHAR Uogonek
ENCODING 370
SWIDTH 637 0
DWIDTH 11 0
BBX 11 18 0 -5
BITMAP
FBE0
79C0
7BC0
39C0
39C0
3980
3B80
3B80
3B80
3B80
3B80
1F80
1B00
1600
0600
0700
03C0
03C0
ENDCHAR
STARTCHAR uogonek
ENCODING 371
SWIDTH 662 0
DWIDTH 12 0
BBX 13 18 0 -5
BITMAP
FDE0
7DF8
3DF0
3CE0
3CE0
3DE0
3DC0
1DC0
3DC0
1DC0
1DC0
1FC0
0F80
0600
0600
0600
07C0
0380
ENDCHAR
STARTCHAR Wcircumflex
ENCODING 372
SWIDTH 777 0
DWIDTH 14 0
BBX 14 21 0 0
BITMAP
0780
0780
0FC0
0DC0
18E0
1860
0000
0340
3B3C
FB78
3B70
1BE0
1BE0
1FE0
0FE0
0FC0
0FC0
0FC0
07C0
0580
0780
ENDCHAR
STARTCHAR wcircumflex
ENCODING 373
SWIDTH 704 0
DWIDTH 13 0
BBX 13 21 0 0
BITMAP
0700
0F80
0F80
1DC0
18C0
30C0
0000
0000
F278
7FF0
3F60
3FE0
1FC0
1FC0
1FC0
0FC0
0FC0
0FC0
0F80
0580
0780
ENDCHAR
STARTCHAR Ycircumflex
ENCODING 374
SWIDTH 688 0
DWIDTH 12 0
BBX 13 22 0 -1
BITMAP
0F00
0F00
0F80
1D80
19C0
30C0
0000
0000
F8E0
3DF8
1DE0
0FC0
0780
0780
0780
0380
0380
0380
0380
0380
0300
0200
ENDCHAR
STARTCHAR ycircumflex
ENCODING 375
SWIDTH 604 0
DWIDTH 11 0
BBX 11 22 0 -1
BITMAP
0E00
1F00
1F00
3B80
3180
6180
0000
0000
F9E0
3BC0
1B80
0F00
0F00
0F00
0E00
0E00
0600
0600
0600
0600
0600
0600
ENDCHAR
STARTCHAR Ydieresis
ENCODING 376
SWIDTH 688 0
DWIDTH 12 0
BBX 13 20 0 -1
BITMAP
19E0
3DE0
3DE0
3DE0
3960
0000
F8E0
3DF8
1DE0
0FC0
0780
0780
0780
0380
0380
0380
0380
0380
0300
0200
ENDCHAR
STARTCHAR Zacute
ENCODING 377
SWIDTH 695 0
DWIDTH 13 0
BBX 12 20 1 -1
BITMAP
0040
00E0
01F0
0380
0000
0000
FFC0
FFE0
7FC0
7FC0
7F80
7F80
4F00
0E00
1C00
1C00
1800
3F00
3E00
0200
ENDCHAR
STARTCHAR zacute
ENCODING 378
SWIDTH 622 0
DWIDTH 11 0
BBX 11 20 1 -1
BITMAP
0080
01C0
03E0
0700
0000
0000
FFC0
FF80
7F80
7F00
7F00
7F00
4E00
0C00
1C00
1800
1800
1E00
3E00
2A00
ENDCHAR
STARTCHAR Zdotaccent
ENCODING 379
SWIDTH 695 0
DWIDTH 13 0
BBX 11 21 1 -1
BITMAP
0600
1F00
1F00
1F00
1F00
0F00
0000
FFC0
FFE0
7FC0
7FC0
7F80
7F80
4F00
0E00
1C00
1C00
1800
3F00
3E00
0200
ENDCHAR
STARTCHAR zdotaccent
ENCODING 380
SWIDTH 622 0
DWIDTH 11 0
BBX 10 21 1 -1
BITMAP
0C00
3E00
3E00
3E00
3E00
3E00
0000
FFC0
FF80
7F80
7F00
7F00
7F00
4E00
0C00
1C00
1800
1800
1E00
3E00
2A00
ENDCHAR
STARTCHAR Zcaron
ENCODING 381
SWIDTH 693 0
DWIDTH 12 0
BBX 11 24 1 -1
BITMAP
2080
3180
3B80
1B80
1F00
1F00
0E00
0000
0000
0000
FFC0
FFE0
7FC0
7FC0
7F80
7F80
4F00
0E00
1C00
1C00
1800
3F00
3E00
0200
ENDCHAR
STARTCHAR zcaron
ENCODING 382
SWIDTH 621 0
DWIDTH 11 0
BBX 10 24 1 -1
BITMAP
2100
6380
7700
3700
3E00
1E00
1400
0000
0000
0000
FFC0
FF80
7F80
7F00
7F00
7F00
4E00
0C00
1C00
1800
1800
1E00
3E00
2A00
ENDCHAR
STARTCHAR DZ
ENCODING 497
SWIDTH 194 0
DWIDTH 4 0
BBX 1 1 0 0
BITMAP
00
ENDCHAR
STARTCHAR Dz
ENCODING 498
SWIDTH 194 0
DWIDTH 4 0
BBX 1 1 0 0
BITMAP
00
ENDCHAR
STARTCHAR dotlessj
ENCODING 567
SWIDTH 458 0
DWIDTH 8 0
BBX 9 14 -1 -1
BITMAP
1F80
0F00
0F00
0F00
0F00
0F00
0F00
0600
1600
E600
7600
7E00
3E00
0600
ENDCHAR
STARTCHAR circumflex
ENCODING 710
SWIDTH 528 0
DWIDTH 10 0
BBX 8 6 1 13
BITMAP
38
3C
7C
6E
C6
83
ENDCHAR
STARTCHAR caron
ENCODING 711
SWIDTH 486 0
DWIDTH 9 0
BBX 8 6 0 13
BITMAP
43
E3
77
3E
3E
3C
ENDCHAR
STARTCHAR breve
ENCODING 728
SWIDTH 464 0
DWIDTH 8 0
BBX 7 5 1 -1
BITMAP
C0
CE
FC
7C
38
ENDCHAR
STARTCHAR dotaccent
ENCODING 729
SWIDTH 388 0
DWIDTH 7 0
BBX 5 6 1 4
BITMAP
30
F8
F8
F8
F8
F8
ENDCHAR
STARTCHAR ring
ENCODING 730
SWIDTH 370 0
DWIDTH 7 0
BBX 5 5 1 5
BITMAP
F0
98
98
F0
20
ENDCHAR
STARTCHAR ogonek
ENCODING 731
SWIDTH 360 0
DWIDTH 7 0
BBX 5 6 1 0
BITMAP
C0
C0
C0
C0
F8
78
ENDCHAR
STARTCHAR tilde
ENCODING 732
SWIDTH 535 0
DWIDTH 10 0
BBX 8 4 1 -1
BITMAP
04
CE
FF
76
ENDCHAR
STARTCHAR hungarumlaut
ENCODING 733
SWIDTH 554 0
DWIDTH 10 0
BBX 9 6 1 13
BITMAP
2200
7780
7700
6600
CC00
8800
ENDCHAR
STARTCHAR dotaccentcmb
ENCODING 775
SWIDTH 396 0
DWIDTH 7 0
BBX 5 5 1 7
BITMAP
F8
F8
F8
78
78
ENDCHAR
STARTCHAR uni030F
ENCODING 783
SWIDTH 549 0
DWIDTH 10 0
BBX 9 6 0 13
BITMAP
2200
E600
7700
3300
1980
0880
ENDCHAR
STARTCHAR uni0311
ENCODING 785
SWIDTH 490 0
DWIDTH 9 0
BBX 7 4 1 7
BITMAP
7C
7C
EE
C6
ENDCHAR
STARTCHAR uni0326
ENCODING 806
SWIDTH 360 0
DWIDTH 7 0
BBX 5 8 1 -2
BITMAP
F0
F0
F8
F0
18
30
30
30
ENDCHAR
STARTCHAR endash
ENCODING 8211
SWIDTH 478 0
DWIDTH 9 0
BBX 7 4 1 5
BITMAP
FE
FC
FC
FC
ENDCHAR
STARTCHAR emdash
ENCODING 8212
SWIDTH 567 0
DWIDTH 10 0
BBX 8 4 1 5
BITMAP
FF
FF
FF
EF
ENDCHAR
STARTCHAR quoteleft
ENCODING 8216
SWIDTH 373 0
DWIDTH 7 0
BBX 5 9 1 4
BITMAP
C0
C0
C0
F8
F8
F8
F8
F8
98
ENDCHAR
STARTCHAR quoteright
ENCODING 8217
SWIDTH 369 0
DWIDTH 7 0
BBX 5 9 1 4
BITMAP
F0
F8
F8
F8
F8
10
30
30
30
ENDCHAR
STARTCHAR quotesinglbase
ENCODING 8218
SWIDTH 369 0
DWIDTH 7 0
BBX 5 9 1 4
BITMAP
F0
F8
F8
F8
F8
10
30
30
30
ENDCHAR
STARTCHAR quotedblleft
ENCODING 8220
SWIDTH 687 0
DWIDTH 12 0
BBX 10 9 1 4
BITMAP
C300
C300
C300
FBC0
FBC0
FBC0
FBC0
FBC0
9C40
ENDCHAR
STARTCHAR quotedblright
ENCODING 8221
SWIDTH 677 0
DWIDTH 12 0
BBX 10 9 1 4
BITMAP
F3C0
F3C0
F3C0
F3C0
F3C0
10C0
30C0
30C0
30C0
ENDCHAR
STARTCHAR quotedblbase
ENCODING 8222
SWIDTH 697 0
DWIDTH 13 0
BBX 11 8 1 -5
BITMAP
F3E0
FBE0
FBE0
FBE0
FBE0
1060
3040
30C0
ENDCHAR
STARTCHAR ellipsis
ENCODING 8230
SWIDTH 1462 0
DWIDTH 26 0
BBX 24 5 1 1
BITMAP
F03C0F
F03C0F
F83C0F
F03C0F
F03C0F
ENDCHAR
STARTCHAR guilsinglleft
ENCODING 8249
SWIDTH 459 0
DWIDTH 8 0
BBX 8 10 0 1
BITMAP
1F
1E
3C
78
F8
78
38
3C
1E
0F
ENDCHAR
STARTCHAR guilsinglright
ENCODING 8250
SWIDTH 432 0
DWIDTH 8 0
BBX 7 10 0 1
BITMAP
F8
78
3C
1E
0E
1E
1C
3C
78
70
ENDCHAR
STARTCHAR fraction
ENCODING 8260
SWIDTH 371 0
DWIDTH 7 0
BBX 7 14 0 -1
BITMAP
FE
7C
3C
38
38
38
38
38
38
38
38
38
18
08
ENDCHAR
STARTCHAR Euro
ENCODING 8364
SWIDTH 587 0
DWIDTH 11 0
BBX 10 17 0 -4
BITMAP
1F80
3F80
3FC0
3FC0
3FC0
3FC0
39C0
FF40
3800
FD00
1980
1F80
1F00
0A00
0E00
0C00
0400
ENDCHAR
STARTCHAR trademark
ENCODING 8482
SWIDTH 785 0
DWIDTH 14 0
BBX 14 10 0 4
BITMAP
0070
FDFC
7DF8
7CF8
74F8
10F8
10B8
10B8
10A8
1000
ENDCHAR
STARTCHAR minus
ENCODING 8722
SWIDTH 478 0
DWIDTH 9 0
BBX 7 4 1 5
BITMAP
FE
FC
FC
FC
ENDCHAR
STARTCHAR commaaccent
ENCODING 63171
SWIDTH 360 0
DWIDTH 7 0
BBX 5 9 1 -3
BITMAP
F0
F8
F8
F8
F8
10
30
30
30
ENDCHAR
STARTCHAR .notdef
ENCODING -1
SWIDTH 365 0
DWIDTH 7 0
BBX 4 12 1 0
BITMAP
F0
90
90
90
90
90
90
90
90
90
90
F0
ENDCHAR
STARTCHAR .null
ENCODING -1
SWIDTH 0 0
DWIDTH 0 0
BBX 1 1 0 0
BITMAP
00
ENDCHAR
STARTCHAR nonmarkingreturn
ENCODING -1
SWIDTH 333 0
DWIDTH 6 0
BBX 1 1 0 0
BITMAP
00
ENDCHAR
ENDFONT
